<?xml version="1.0" encoding="UTF-8"?>
<svg viewBox="0 0 400 400" xmlns="http://www.w3.org/2000/svg">
<g fill-rule="evenodd">
<path d="m184.4 36.8c0 0.233-1.333 0.4-3.2 0.4s-3.2 0.167-3.2 0.4c0 0.229-1.2 0.4-2.8 0.4s-2.8 0.171-2.8 0.4c0 0.22-0.9 0.4-2 0.4s-2 0.18-2 0.4-0.9 0.4-2 0.4-2 0.18-2 0.4-0.72 0.4-1.6 0.4-1.6 0.18-1.6 0.4-0.72 0.4-1.6 0.4-1.6 0.18-1.6 0.4-0.54 0.4-1.2 0.4-1.2 0.18-1.2 0.4-0.72 0.4-1.6 0.4-1.6 0.18-1.6 0.4-0.54 0.4-1.2 0.4-1.2 0.18-1.2 0.4-0.54 0.4-1.2 0.4-1.2 0.18-1.2 0.4-0.54 0.4-1.2 0.4-1.2 0.18-1.2 0.4-0.36 0.4-0.8 0.4-0.8 0.18-0.8 0.4-0.54 0.4-1.2 0.4-1.2 0.18-1.2 0.4-0.36 0.4-0.8 0.4-0.8 0.18-0.8 0.4-0.54 0.4-1.2 0.4-1.2 0.18-1.2 0.4-0.36 0.4-0.8 0.4-0.8 0.18-0.8 0.4-0.36 0.4-0.8 0.4-0.8 0.18-0.8 0.4-0.54 0.4-1.2 0.4-1.2 0.18-1.2 0.4-0.36 0.4-0.8 0.4-0.8 0.18-0.8 0.4-0.36 0.4-0.8 0.4-0.8 0.18-0.8 0.4-0.36 0.4-0.8 0.4-0.8 0.18-0.8 0.4-0.36 0.4-0.8 0.4-0.8 0.18-0.8 0.4-0.32 0.4-0.712 0.4c-0.391 0-0.971 0.36-1.288 0.8s-0.897 0.8-1.288 0.8c-0.392 0-0.712 0.18-0.712 0.4s-0.36 0.4-0.8 0.4-0.8 0.18-0.8 0.4-0.32 0.4-0.712 0.4c-0.391 0-0.971 0.36-1.288 0.8s-0.897 0.8-1.288 0.8c-0.392 0-0.712 0.18-0.712 0.4s-0.32 0.4-0.712 0.4c-0.391 0-0.971 0.36-1.288 0.8s-0.857 0.8-1.2 0.8-0.883 0.36-1.2 0.8-0.857 0.8-1.2 0.8-0.883 0.36-1.2 0.8-0.825 0.8-1.128 0.8-1.055 0.54-1.672 1.2-1.337 1.2-1.6 1.2-0.983 0.54-1.6 1.2-1.333 1.2-1.592 1.2-1.162 0.72-2.008 1.6-1.741 1.6-1.991 1.6c-0.249 0-1.513 1.08-2.809 2.4s-2.547 2.4-2.781 2.4c-0.557 0-11.219 10.662-11.219 11.219 0 0.234-1.08 1.485-2.4 2.781s-2.4 2.56-2.4 2.809c0 0.25-0.72 1.145-1.6 1.991s-1.6 1.749-1.6 2.008-0.54 0.975-1.2 1.592-1.2 1.337-1.2 1.6-0.54 0.983-1.2 1.6-1.2 1.369-1.2 1.672-0.36 0.811-0.8 1.128-0.8 0.857-0.8 1.2-0.36 0.883-0.8 1.2-0.8 0.857-0.8 1.2-0.36 0.883-0.8 1.2-0.8 0.897-0.8 1.288c0 0.392-0.18 0.712-0.4 0.712s-0.4 0.32-0.4 0.712c0 0.391-0.36 0.971-0.8 1.288s-0.8 0.897-0.8 1.288c0 0.392-0.18 0.712-0.4 0.712s-0.4 0.36-0.4 0.8-0.18 0.8-0.4 0.8-0.4 0.32-0.4 0.712c0 0.391-0.36 0.971-0.8 1.288s-0.8 0.897-0.8 1.288c0 0.392-0.18 0.712-0.4 0.712s-0.4 0.36-0.4 0.8-0.18 0.8-0.4 0.8-0.4 0.36-0.4 0.8-0.18 0.8-0.4 0.8-0.4 0.36-0.4 0.8-0.18 0.8-0.4 0.8-0.4 0.36-0.4 0.8-0.18 0.8-0.4 0.8-0.4 0.54-0.4 1.2-0.18 1.2-0.4 1.2-0.4 0.36-0.4 0.8-0.18 0.8-0.4 0.8-0.4 0.36-0.4 0.8-0.18 0.8-0.4 0.8-0.4 0.54-0.4 1.2-0.18 1.2-0.4 1.2-0.4 0.36-0.4 0.8-0.18 0.8-0.4 0.8-0.4 0.54-0.4 1.2-0.18 1.2-0.4 1.2-0.4 0.36-0.4 0.8-0.18 0.8-0.4 0.8-0.4 0.54-0.4 1.2-0.18 1.2-0.4 1.2-0.4 0.54-0.4 1.2-0.18 1.2-0.4 1.2-0.4 0.54-0.4 1.2-0.18 1.2-0.4 1.2-0.4 0.72-0.4 1.6-0.18 1.6-0.4 1.6-0.4 0.54-0.4 1.2-0.18 1.2-0.4 1.2-0.4 0.72-0.4 1.6-0.18 1.6-0.4 1.6-0.4 0.72-0.4 1.6-0.18 1.6-0.4 1.6-0.4 0.9-0.4 2-0.18 2-0.4 2-0.4 0.9-0.4 2-0.18 2-0.4 2c-0.222 0-0.4 1.067-0.4 2.4v2.4h16.8 16.8v-1.2c0-0.66 0.18-1.2 0.4-1.2s0.4-0.72 0.4-1.6 0.18-1.6 0.4-1.6 0.4-0.283 0.4-0.629c0-0.808 0.963-1.771 1.771-1.771 0.346 0 0.629-0.18 0.629-0.4s0.36-0.4 0.8-0.4 0.8-0.18 0.8-0.4 0.36-0.4 0.8-0.4 0.8-0.18 0.8-0.4 0.54-0.4 1.2-0.4 1.2-0.18 1.2-0.4 0.36-0.4 0.8-0.4 0.8-0.18 0.8-0.4 0.36-0.4 0.8-0.4 0.8-0.18 0.8-0.4 0.36-0.4 0.8-0.4 0.8-0.18 0.8-0.4 0.36-0.4 0.8-0.4 0.8-0.18 0.8-0.4 0.54-0.4 1.2-0.4 1.2-0.18 1.2-0.4 0.36-0.4 0.8-0.4 0.8-0.18 0.8-0.4 0.36-0.4 0.8-0.4 0.8-0.18 0.8-0.4 0.36-0.4 0.8-0.4 0.8-0.18 0.8-0.4 0.36-0.4 0.8-0.4 0.8-0.18 0.8-0.4 0.36-0.4 0.8-0.4 0.8-0.18 0.8-0.4 0.54-0.4 1.2-0.4 1.2-0.18 1.2-0.4 0.36-0.4 0.8-0.4 0.8-0.18 0.8-0.4 0.36-0.4 0.8-0.4 0.8-0.18 0.8-0.4 0.36-0.4 0.8-0.4 0.8-0.18 0.8-0.4 0.36-0.4 0.8-0.4 0.8-0.18 0.8-0.4 0.36-0.4 0.8-0.4 0.8-0.18 0.8-0.4 0.36-0.4 0.8-0.4 0.8-0.18 0.8-0.4 0.18-0.4 0.4-0.4c0.248 0 0.4 2.21 0.4 5.829 0 6.037-0.237 6.971-1.771 6.971-0.346 0-0.629 0.18-0.629 0.4s-0.36 0.4-0.8 0.4-0.8 0.18-0.8 0.4-0.36 0.4-0.8 0.4-0.8 0.18-0.8 0.4-0.36 0.4-0.8 0.4-0.8 0.18-0.8 0.4-0.54 0.4-1.2 0.4-1.2 0.18-1.2 0.4-0.36 0.4-0.8 0.4-0.8 0.18-0.8 0.4-0.36 0.4-0.8 0.4-0.8 0.18-0.8 0.4-0.54 0.4-1.2 0.4-1.2 0.18-1.2 0.4-0.36 0.4-0.8 0.4-0.8 0.18-0.8 0.4-0.36 0.4-0.8 0.4-0.8 0.18-0.8 0.4-0.36 0.4-0.8 0.4-0.8 0.18-0.8 0.4-0.54 0.4-1.2 0.4-1.2 0.18-1.2 0.4-0.36 0.4-0.8 0.4-0.8 0.18-0.8 0.4-0.36 0.4-0.8 0.4-0.8 0.18-0.8 0.4-0.36 0.4-0.8 0.4-0.8 0.18-0.8 0.4-0.54 0.4-1.2 0.4-1.2 0.18-1.2 0.4-0.36 0.4-0.8 0.4-0.8 0.18-0.8 0.4-0.36 0.4-0.8 0.4-0.8 0.18-0.8 0.4-0.36 0.4-0.8 0.4-0.8 0.18-0.8 0.4-0.54 0.4-1.2 0.4-1.2 0.18-1.2 0.4-0.36 0.4-0.8 0.4-0.8 0.18-0.8 0.4-0.36 0.4-0.8 0.4-0.8 0.18-0.8 0.4-0.54 0.4-1.2 0.4-1.2 0.18-1.2 0.4-0.36 0.4-0.8 0.4-0.8 0.18-0.8 0.4-0.36 0.4-0.8 0.4-0.8 0.18-0.8 0.4-0.36 0.4-0.8 0.4-0.8 0.18-0.8 0.4-0.463 0.4-1.029 0.4c-1.312 0-2.171 0.859-2.171 2.171 0 0.934 0.148 1.029 1.6 1.029 0.88 0 1.6-0.18 1.6-0.4s0.54-0.4 1.2-0.4 1.2-0.18 1.2-0.4 0.36-0.4 0.8-0.4 0.8-0.18 0.8-0.4 0.54-0.4 1.2-0.4 1.2-0.18 1.2-0.4 0.36-0.4 0.8-0.4 0.8-0.18 0.8-0.4 0.54-0.4 1.2-0.4 1.2-0.18 1.2-0.4 0.54-0.4 1.2-0.4 1.2-0.18 1.2-0.4 0.36-0.4 0.8-0.4 0.8-0.18 0.8-0.4 0.54-0.4 1.2-0.4 1.2-0.18 1.2-0.4 0.36-0.4 0.8-0.4 0.8-0.18 0.8-0.4 0.54-0.4 1.2-0.4 1.2-0.18 1.2-0.4 0.36-0.4 0.8-0.4 0.8-0.18 0.8-0.4 0.54-0.4 1.2-0.4 1.2-0.18 1.2-0.4 0.54-0.4 1.2-0.4 1.2-0.18 1.2-0.4 0.36-0.4 0.8-0.4 0.8-0.18 0.8-0.4 0.54-0.4 1.2-0.4 1.2-0.18 1.2-0.4 0.36-0.4 0.8-0.4 0.8-0.18 0.8-0.4 0.54-0.4 1.2-0.4 1.2-0.18 1.2-0.4 0.36-0.4 0.8-0.4 0.8-0.18 0.8-0.4 0.54-0.4 1.2-0.4 1.2-0.18 1.2-0.4 0.54-0.4 1.2-0.4 1.2-0.18 1.2-0.4 0.36-0.4 0.8-0.4 0.8-0.18 0.8-0.4 0.54-0.4 1.2-0.4 1.2-0.18 1.2-0.4 0.345-0.4 0.767-0.4c0.421 0 0.871-0.225 1-0.5 0.186-0.4 0.28-0.4 0.466 0 0.129 0.275 0.579 0.5 1 0.5 0.426 0 0.767 0.276 0.767 0.619 0 0.341 1.26 1.862 2.8 3.381s2.8 2.954 2.8 3.189c0 0.662 4.305 4.811 4.991 4.811 1.197 0 0.863 10.583-0.373 11.818-0.54 0.54-1.22 0.982-1.512 0.982-0.291 0-0.789 0.36-1.106 0.8s-0.897 0.8-1.288 0.8c-0.392 0-0.712 0.18-0.712 0.4s-0.32 0.4-0.712 0.4c-0.391 0-0.971 0.36-1.288 0.8s-0.897 0.8-1.288 0.8c-0.392 0-0.712 0.18-0.712 0.4s-0.54 0.4-1.2 0.4-1.2 0.18-1.2 0.4-0.54 0.4-1.2 0.4-1.2 0.18-1.2 0.4-0.54 0.4-1.2 0.4-1.2 0.18-1.2 0.4-0.54 0.4-1.2 0.4-1.2 0.18-1.2 0.4-0.54 0.4-1.2 0.4-1.2 0.18-1.2 0.4-0.54 0.4-1.2 0.4-1.2 0.18-1.2 0.4-0.54 0.4-1.2 0.4-1.2 0.18-1.2 0.4-0.72 0.4-1.6 0.4-1.6 0.18-1.6 0.4-0.54 0.4-1.2 0.4-1.2 0.18-1.2 0.4-0.54 0.4-1.2 0.4-1.2 0.18-1.2 0.4-0.72 0.4-1.6 0.4-1.6 0.18-1.6 0.4-0.54 0.4-1.2 0.4-1.2 0.18-1.2 0.4-0.54 0.4-1.2 0.4-1.2 0.18-1.2 0.4-0.72 0.4-1.6 0.4-1.6 0.18-1.6 0.4-0.54 0.4-1.2 0.4-1.2 0.18-1.2 0.4-0.54 0.4-1.2 0.4-1.2 0.18-1.2 0.4-0.72 0.4-1.6 0.4-1.6 0.18-1.6 0.4-0.463 0.4-1.029 0.4c-1.312 0-2.171 0.859-2.171 2.171 0 0.991 0.089 1.029 2.4 1.029 1.333 0 2.4-0.178 2.4-0.4 0-0.22 0.54-0.4 1.2-0.4s1.2-0.18 1.2-0.4 0.72-0.4 1.6-0.4 1.6-0.18 1.6-0.4 0.9-0.4 2-0.4 2-0.18 2-0.4 0.72-0.4 1.6-0.4 1.6-0.18 1.6-0.4 0.54-0.4 1.2-0.4 1.2-0.18 1.2-0.4 0.72-0.4 1.6-0.4 1.6-0.18 1.6-0.4 0.9-0.4 2-0.4 2-0.18 2-0.4 0.54-0.4 1.2-0.4 1.2-0.18 1.2-0.4 0.72-0.4 1.6-0.4 1.6-0.18 1.6-0.4 0.9-0.4 2-0.4 2-0.18 2-0.4 0.72-0.4 1.6-0.4 1.6-0.18 1.6-0.4 0.54-0.4 1.2-0.4 1.2-0.18 1.2-0.4 0.9-0.4 2-0.4h2v8c0 5.067-0.147 8-0.4 8-0.242 0-0.4 1.733-0.4 4.4v4.4h-1.6c-0.88 0-1.6 0.18-1.6 0.4 0 0.222-1.067 0.4-2.4 0.4s-2.4 0.178-2.4 0.4c0 0.22-0.9 0.4-2 0.4s-2 0.18-2 0.4c0 0.222-1.067 0.4-2.4 0.4s-2.4 0.178-2.4 0.4c0 0.22-0.9 0.4-2 0.4s-2 0.18-2 0.4c0 0.222-1.067 0.4-2.4 0.4s-2.4 0.178-2.4 0.4-1.067 0.4-2.4 0.4-2.4 0.178-2.4 0.4c0 0.22-0.9 0.4-2 0.4s-2 0.18-2 0.4-0.9 0.4-2 0.4c-1.733 0-2-0.107-2-0.8 0-0.44-0.18-0.8-0.4-0.8s-0.4-0.54-0.4-1.2-0.18-1.2-0.4-1.2-0.4-0.72-0.4-1.6-0.18-1.6-0.4-1.6-0.4-0.72-0.4-1.6-0.18-1.6-0.4-1.6-0.4-0.72-0.4-1.6v-1.6h-16.8-16.8v2.8c0 1.6 0.171 2.8 0.4 2.8 0.22 0 0.4 0.9 0.4 2s0.18 2 0.4 2 0.4 0.9 0.4 2 0.18 2 0.4 2 0.4 0.72 0.4 1.6 0.18 1.6 0.4 1.6 0.4 0.72 0.4 1.6 0.18 1.6 0.4 1.6 0.4 0.54 0.4 1.2 0.18 1.2 0.4 1.2 0.4 0.72 0.4 1.6 0.18 1.6 0.4 1.6 0.4 0.54 0.4 1.2 0.18 1.2 0.4 1.2 0.4 0.54 0.4 1.2 0.18 1.2 0.4 1.2 0.4 0.54 0.4 1.2 0.18 1.2 0.4 1.2 0.4 0.36 0.4 0.8 0.18 0.8 0.4 0.8 0.4 0.54 0.4 1.2 0.18 1.2 0.4 1.2 0.4 0.36 0.4 0.8 0.18 0.8 0.4 0.8 0.4 0.54 0.4 1.2 0.18 1.2 0.4 1.2 0.4 0.36 0.4 0.8 0.18 0.8 0.4 0.8 0.4 0.36 0.4 0.8 0.18 0.8 0.4 0.8 0.4 0.54 0.4 1.2 0.18 1.2 0.4 1.2 0.4 0.36 0.4 0.8 0.18 0.8 0.4 0.8 0.4 0.36 0.4 0.8 0.18 0.8 0.4 0.8 0.4 0.36 0.4 0.8 0.18 0.8 0.4 0.8 0.4 0.36 0.4 0.8 0.18 0.8 0.4 0.8 0.4 0.32 0.4 0.712c0 0.391 0.36 0.971 0.8 1.288s0.8 0.897 0.8 1.288c0 0.392 0.18 0.712 0.4 0.712s0.4 0.36 0.4 0.8 0.18 0.8 0.4 0.8 0.4 0.32 0.4 0.712c0 0.391 0.36 0.971 0.8 1.288s0.8 0.897 0.8 1.288c0 0.392 0.18 0.712 0.4 0.712s0.4 0.32 0.4 0.712c0 0.391 0.36 0.971 0.8 1.288s0.8 0.857 0.8 1.2 0.36 0.883 0.8 1.2 0.8 0.857 0.8 1.2 0.36 0.883 0.8 1.2 0.8 0.825 0.8 1.128 0.54 1.055 1.2 1.672 1.2 1.337 1.2 1.6 0.54 0.983 1.2 1.6 1.2 1.333 1.2 1.592 0.72 1.162 1.6 2.008 1.6 1.741 1.6 1.991c0 0.249 1.08 1.513 2.4 2.809s2.4 2.547 2.4 2.781c0 0.557 10.662 11.219 11.219 11.219 0.234 0 1.485 1.08 2.781 2.4s2.56 2.4 2.809 2.4c0.25 0 1.145 0.72 1.991 1.6s1.749 1.6 2.008 1.6 0.975 0.54 1.592 1.2 1.337 1.2 1.6 1.2 0.983 0.54 1.6 1.2 1.369 1.2 1.672 1.2 0.811 0.36 1.128 0.8 0.857 0.8 1.2 0.8 0.883 0.36 1.2 0.8 0.857 0.8 1.2 0.8 0.883 0.36 1.2 0.8 0.897 0.8 1.288 0.8c0.392 0 0.712 0.18 0.712 0.4s0.32 0.4 0.712 0.4c0.391 0 0.971 0.36 1.288 0.8s0.897 0.8 1.288 0.8c0.392 0 0.712 0.18 0.712 0.4s0.36 0.4 0.8 0.4 0.8 0.18 0.8 0.4 0.32 0.4 0.712 0.4c0.391 0 0.971 0.36 1.288 0.8s0.897 0.8 1.288 0.8c0.392 0 0.712 0.18 0.712 0.4s0.36 0.4 0.8 0.4 0.8 0.18 0.8 0.4 0.36 0.4 0.8 0.4 0.8 0.18 0.8 0.4 0.36 0.4 0.8 0.4 0.8 0.18 0.8 0.4 0.36 0.4 0.8 0.4 0.8 0.18 0.8 0.4 0.54 0.4 1.2 0.4 1.2 0.18 1.2 0.4 0.36 0.4 0.8 0.4 0.8 0.18 0.8 0.4 0.36 0.4 0.8 0.4 0.8 0.18 0.8 0.4 0.54 0.4 1.2 0.4 1.2 0.18 1.2 0.4 0.36 0.4 0.8 0.4 0.8 0.18 0.8 0.4 0.54 0.4 1.2 0.4 1.2 0.18 1.2 0.4 0.36 0.4 0.8 0.4 0.8 0.18 0.8 0.4 0.54 0.4 1.2 0.4 1.2 0.18 1.2 0.4 0.54 0.4 1.2 0.4 1.2 0.18 1.2 0.4 0.54 0.4 1.2 0.4 1.2 0.18 1.2 0.4 0.72 0.4 1.6 0.4 1.6 0.18 1.6 0.4 0.54 0.4 1.2 0.4 1.2 0.18 1.2 0.4 0.72 0.4 1.6 0.4 1.6 0.18 1.6 0.4 0.72 0.4 1.6 0.4 1.6 0.18 1.6 0.4 0.9 0.4 2 0.4 2 0.18 2 0.4 0.9 0.4 2 0.4 2 0.18 2 0.4c0 0.229 1.2 0.4 2.8 0.4s2.8 0.171 2.8 0.4c0 0.233 1.333 0.4 3.2 0.4s3.2 0.167 3.2 0.4c0 0.26 5.867 0.4 16.8 0.4s16.8-0.14 16.8-0.4c0-0.233 1.333-0.4 3.2-0.4s3.2-0.167 3.2-0.4c0-0.229 1.2-0.4 2.8-0.4s2.8-0.171 2.8-0.4c0-0.22 0.9-0.4 2-0.4s2-0.18 2-0.4 0.9-0.4 2-0.4 2-0.18 2-0.4 0.72-0.4 1.6-0.4 1.6-0.18 1.6-0.4 0.72-0.4 1.6-0.4 1.6-0.18 1.6-0.4 0.54-0.4 1.2-0.4 1.2-0.18 1.2-0.4 0.72-0.4 1.6-0.4 1.6-0.18 1.6-0.4 0.54-0.4 1.2-0.4 1.2-0.18 1.2-0.4 0.54-0.4 1.2-0.4 1.2-0.18 1.2-0.4 0.54-0.4 1.2-0.4 1.2-0.18 1.2-0.4 0.36-0.4 0.8-0.4 0.8-0.18 0.8-0.4 0.54-0.4 1.2-0.4 1.2-0.18 1.2-0.4 0.36-0.4 0.8-0.4 0.8-0.18 0.8-0.4 0.54-0.4 1.2-0.4 1.2-0.18 1.2-0.4 0.36-0.4 0.8-0.4 0.8-0.18 0.8-0.4 0.36-0.4 0.8-0.4 0.8-0.18 0.8-0.4 0.54-0.4 1.2-0.4 1.2-0.18 1.2-0.4 0.36-0.4 0.8-0.4 0.8-0.18 0.8-0.4 0.36-0.4 0.8-0.4 0.8-0.18 0.8-0.4 0.36-0.4 0.8-0.4 0.8-0.18 0.8-0.4 0.36-0.4 0.8-0.4 0.8-0.18 0.8-0.4 0.32-0.4 0.712-0.4c0.391 0 0.971-0.36 1.288-0.8s0.897-0.8 1.288-0.8c0.392 0 0.712-0.18 0.712-0.4s0.36-0.4 0.8-0.4 0.8-0.18 0.8-0.4 0.32-0.4 0.712-0.4c0.391 0 0.971-0.36 1.288-0.8s0.897-0.8 1.288-0.8c0.392 0 0.712-0.18 0.712-0.4s0.32-0.4 0.712-0.4c0.391 0 0.971-0.36 1.288-0.8s0.857-0.8 1.2-0.8 0.883-0.36 1.2-0.8 0.857-0.8 1.2-0.8 0.883-0.36 1.2-0.8 0.825-0.8 1.128-0.8 1.055-0.54 1.672-1.2 1.337-1.2 1.6-1.2 0.983-0.54 1.6-1.2 1.333-1.2 1.592-1.2 1.162-0.72 2.008-1.6 1.741-1.6 1.991-1.6c0.249 0 1.513-1.08 2.809-2.4s2.547-2.4 2.781-2.4c0.557 0 11.219-10.662 11.219-11.219 0-0.234 1.08-1.485 2.4-2.781s2.4-2.56 2.4-2.809c0-0.25 0.72-1.145 1.6-1.991s1.6-1.749 1.6-2.008 0.54-0.975 1.2-1.592 1.2-1.337 1.2-1.6 0.54-0.983 1.2-1.6 1.2-1.369 1.2-1.672 0.36-0.811 0.8-1.128 0.8-0.857 0.8-1.2 0.36-0.883 0.8-1.2 0.8-0.857 0.8-1.2 0.36-0.883 0.8-1.2 0.8-0.897 0.8-1.288c0-0.392 0.18-0.712 0.4-0.712s0.4-0.32 0.4-0.712c0-0.391 0.36-0.971 0.8-1.288s0.8-0.897 0.8-1.288c0-0.392 0.18-0.712 0.4-0.712s0.4-0.36 0.4-0.8 0.18-0.8 0.4-0.8 0.4-0.32 0.4-0.712c0-0.391 0.36-0.971 0.8-1.288s0.8-0.897 0.8-1.288c0-0.392 0.18-0.712 0.4-0.712s0.4-0.36 0.4-0.8 0.18-0.8 0.4-0.8 0.4-0.36 0.4-0.8 0.18-0.8 0.4-0.8 0.4-0.36 0.4-0.8 0.18-0.8 0.4-0.8 0.4-0.36 0.4-0.8 0.18-0.8 0.4-0.8 0.4-0.54 0.4-1.2 0.18-1.2 0.4-1.2 0.4-0.36 0.4-0.8 0.18-0.8 0.4-0.8 0.4-0.36 0.4-0.8 0.18-0.8 0.4-0.8 0.4-0.54 0.4-1.2 0.18-1.2 0.4-1.2 0.4-0.36 0.4-0.8 0.18-0.8 0.4-0.8 0.4-0.54 0.4-1.2 0.18-1.2 0.4-1.2 0.4-0.36 0.4-0.8 0.18-0.8 0.4-0.8 0.4-0.54 0.4-1.2 0.18-1.2 0.4-1.2 0.4-0.54 0.4-1.2 0.18-1.2 0.4-1.2 0.4-0.54 0.4-1.2 0.18-1.2 0.4-1.2 0.4-0.72 0.4-1.6 0.18-1.6 0.4-1.6 0.4-0.54 0.4-1.2 0.18-1.2 0.4-1.2 0.4-0.72 0.4-1.6 0.18-1.6 0.4-1.6 0.4-0.72 0.4-1.6 0.18-1.6 0.4-1.6 0.4-0.9 0.4-2 0.18-2 0.4-2 0.4-0.9 0.4-2 0.18-2 0.4-2c0.229 0 0.4-1.2 0.4-2.8v-2.8h-15.2c-14.933 0-15.2 0.014-15.2 0.8 0 0.44-0.18 0.8-0.4 0.8-0.222 0-0.4 1.067-0.4 2.4s-0.178 2.4-0.4 2.4c-0.22 0-0.4 0.54-0.4 1.2s-0.18 1.2-0.4 1.2-0.4 0.643-0.4 1.429c0 1.512-0.729 2.571-1.771 2.571-0.432 0-0.629 0.376-0.629 1.2 0 0.66 0.18 1.2 0.4 1.2s0.4 0.36 0.4 0.8-0.18 0.8-0.4 0.8-0.4 0.72-0.4 1.6-0.18 1.6-0.4 1.6-0.4 0.54-0.4 1.2-0.18 1.2-0.4 1.2-0.4 0.36-0.4 0.8-0.18 0.8-0.4 0.8-0.4 0.36-0.4 0.8-0.18 0.8-0.4 0.8-0.4 0.54-0.4 1.2-0.18 1.2-0.4 1.2-0.4 0.36-0.4 0.8-0.18 0.8-0.4 0.8-0.4 0.54-0.4 1.2-0.18 1.2-0.4 1.2-0.4 0.36-0.4 0.8-0.18 0.8-0.4 0.8-0.4 0.36-0.4 0.8-0.18 0.8-0.4 0.8-0.4 0.32-0.4 0.712c0 0.391-0.36 0.971-0.8 1.288s-0.8 0.897-0.8 1.288c0 0.392-0.18 0.712-0.4 0.712s-0.4 0.36-0.4 0.8-0.18 0.8-0.4 0.8-0.4 0.36-0.4 0.8-0.18 0.8-0.4 0.8-0.4 0.32-0.4 0.712c0 0.391-0.36 0.971-0.8 1.288s-0.8 0.857-0.8 1.2-0.36 0.883-0.8 1.2-0.8 0.857-0.8 1.2-0.36 0.883-0.8 1.2-0.8 0.857-0.8 1.2-0.36 0.883-0.8 1.2-0.8 0.857-0.8 1.2-0.36 0.883-0.8 1.2-0.8 0.821-0.8 1.12c0 0.298-0.72 1.234-1.6 2.08s-1.6 1.743-1.6 1.995c0 0.251-0.9 1.334-2 2.405s-2 2.142-2 2.378c0 0.559-9.86 10.422-10.418 10.422-0.235 0-1.486 1.08-2.782 2.4s-2.563 2.4-2.817 2.4-0.966 0.54-1.583 1.2-1.337 1.2-1.6 1.2-0.983 0.54-1.6 1.2-1.369 1.2-1.672 1.2-0.811 0.36-1.128 0.8-0.897 0.8-1.288 0.8c-0.392 0-0.712 0.18-0.712 0.4s-0.288 0.4-0.64 0.4c-0.351 0-1.143 0.54-1.76 1.2s-1.409 1.2-1.76 1.2c-0.352 0-0.64 0.18-0.64 0.4s-0.32 0.4-0.712 0.4c-0.391 0-0.971 0.36-1.288 0.8-0.318 0.441-1.035 0.8-1.6 0.8s-1.282 0.359-1.6 0.8c-0.317 0.44-0.897 0.8-1.288 0.8-0.392 0-0.712 0.18-0.712 0.4s-0.36 0.4-0.8 0.4-0.8 0.18-0.8 0.4-0.36 0.4-0.8 0.4-0.8 0.18-0.8 0.4-0.36 0.4-0.8 0.4-0.8 0.18-0.8 0.4-0.36 0.4-0.8 0.4-0.8 0.18-0.8 0.4-0.54 0.4-1.2 0.4-1.2 0.18-1.2 0.4-0.36 0.4-0.8 0.4-0.8 0.18-0.8 0.4-0.36 0.4-0.8 0.4-0.8 0.18-0.8 0.4-0.54 0.4-1.2 0.4-1.2 0.18-1.2 0.4-0.54 0.4-1.2 0.4-1.2 0.18-1.2 0.4-0.36 0.4-0.8 0.4-0.8 0.18-0.8 0.4-0.72 0.4-1.6 0.4-1.6 0.18-1.6 0.4-0.72 0.4-1.6 0.4-1.6 0.18-1.6 0.4-0.54 0.4-1.2 0.4-1.2 0.18-1.2 0.4-0.72 0.4-1.6 0.4-1.6 0.18-1.6 0.4-0.72 0.4-1.6 0.4-1.6 0.18-1.6 0.4-0.9 0.4-2 0.4-2 0.18-2 0.4c0 0.233-1.333 0.4-3.2 0.4s-3.2 0.167-3.2 0.4c0 0.244-1.867 0.4-4.8 0.4s-4.8 0.156-4.8 0.4c0 0.251-2.533 0.4-6.8 0.4s-6.8-0.149-6.8-0.4c0-0.242-1.733-0.4-4.4-0.4s-4.4-0.158-4.4-0.4c0-0.237-1.467-0.4-3.6-0.4s-3.6-0.163-3.6-0.4c0-0.22-0.72-0.4-1.6-0.4s-1.6-0.18-1.6-0.4-0.9-0.4-2-0.4-2-0.18-2-0.4-0.54-0.4-1.2-0.4-1.2-0.18-1.2-0.4-0.72-0.4-1.6-0.4-1.6-0.18-1.6-0.4-0.54-0.4-1.2-0.4-1.2-0.18-1.2-0.4-0.72-0.4-1.6-0.4-1.6-0.18-1.6-0.4-0.54-0.4-1.2-0.4-1.2-0.18-1.2-0.4-0.36-0.4-0.8-0.4-0.8-0.18-0.8-0.4-0.54-0.4-1.2-0.4-1.2-0.18-1.2-0.4-0.36-0.4-0.8-0.4-0.8-0.18-0.8-0.4-0.36-0.4-0.8-0.4-0.8-0.18-0.8-0.4-0.54-0.4-1.2-0.4-1.2-0.18-1.2-0.4-0.36-0.4-0.8-0.4-0.8-0.18-0.8-0.4-0.36-0.4-0.8-0.4-0.8-0.18-0.8-0.4-0.36-0.4-0.8-0.4-0.8-0.18-0.8-0.4-0.36-0.4-0.8-0.4-0.8-0.18-0.8-0.4-0.36-0.4-0.8-0.4-0.8-0.18-0.8-0.4-0.36-0.4-0.8-0.4-0.8-0.18-0.8-0.4-0.32-0.4-0.712-0.4c-0.391 0-0.971-0.36-1.288-0.8s-0.897-0.8-1.288-0.8c-0.392 0-0.712-0.18-0.712-0.4s-0.32-0.4-0.712-0.4c-0.391 0-0.971-0.36-1.288-0.8s-0.897-0.8-1.288-0.8c-0.392 0-0.712-0.18-0.712-0.4s-0.32-0.4-0.712-0.4c-0.391 0-0.971-0.36-1.288-0.8s-0.821-0.8-1.12-0.8c-0.298 0-1.234-0.72-2.08-1.6s-1.749-1.6-2.008-1.6-0.975-0.54-1.592-1.2-1.333-1.2-1.592-1.2-1.162-0.72-2.008-1.6-1.733-1.6-1.972-1.6c-0.567 0-13.628-13.061-13.628-13.628 0-0.239-0.72-1.126-1.6-1.972s-1.6-1.749-1.6-2.008-0.54-0.975-1.2-1.592-1.2-1.337-1.2-1.6-0.54-0.983-1.2-1.6-1.2-1.337-1.2-1.6-0.54-0.983-1.2-1.6-1.2-1.409-1.2-1.76c0-0.352-0.18-0.64-0.4-0.64s-0.4-0.32-0.4-0.712c0-0.391-0.36-0.971-0.8-1.288s-0.8-0.897-0.8-1.288c0-0.392-0.18-0.712-0.4-0.712s-0.4-0.32-0.4-0.712c0-0.391-0.36-0.971-0.8-1.288s-0.8-0.897-0.8-1.288c0-0.392-0.18-0.712-0.4-0.712s-0.4-0.36-0.4-0.8-0.18-0.8-0.4-0.8-0.4-0.36-0.4-0.8-0.18-0.8-0.4-0.8-0.4-0.36-0.4-0.8-0.18-0.8-0.4-0.8-0.4-0.36-0.4-0.8-0.18-0.8-0.4-0.8-0.4-0.36-0.4-0.8-0.18-0.8-0.4-0.8-0.4-0.36-0.4-0.8-0.18-0.8-0.4-0.8-0.4-0.54-0.4-1.2-0.18-1.2-0.4-1.2-0.4-0.36-0.4-0.8-0.18-0.8-0.4-0.8-0.4-0.54-0.4-1.2-0.18-1.2-0.4-1.2-0.4-0.36-0.4-0.8-0.18-0.8-0.4-0.8-0.4-0.54-0.4-1.2-0.18-1.2-0.4-1.2-0.4-0.36-0.4-0.8-0.18-0.8-0.4-0.8-0.4-0.36-0.4-0.8c0-0.711 0.267-0.8 2.4-0.8 1.333 0 2.4-0.178 2.4-0.4 0-0.229 1.2-0.4 2.8-0.4s2.8-0.171 2.8-0.4c0-0.222 1.067-0.4 2.4-0.4s2.4-0.178 2.4-0.4c0-0.229 1.2-0.4 2.8-0.4s2.8-0.171 2.8-0.4c0-0.233 1.333-0.4 3.2-0.4s3.2-0.167 3.2-0.4c0-0.222 1.067-0.4 2.4-0.4s2.4-0.178 2.4-0.4c0-0.228 1.189-0.4 2.767-0.4 1.823 0 2.822-0.167 2.929-0.489 0.188-0.563 2.304 1.375 2.304 2.11 0 0.252 0.54 0.962 1.2 1.579l1.2 1.121v9.039c0 5.76-0.145 9.04-0.4 9.04-0.607 0-0.478 1.979 0.171 2.629 0.999 0.998 4.492 0.745 5.647-0.411 1.04-1.039 1.535-7.018 0.582-7.018-0.249 0-0.4-2.267-0.4-6s-0.151-6-0.4-6c-0.22 0-0.4-0.54-0.4-1.2s-0.18-1.2-0.4-1.2-0.4-0.282-0.4-0.626-0.9-1.503-2-2.574c-1.96-1.909-3.082-6.4-1.6-6.4 0.257 0 0.4-3.867 0.4-10.8s0.143-10.8 0.4-10.8c0.236 0 0.4-1.41 0.4-3.429 0-3.528 0.404-4.571 1.771-4.571 0.346 0 0.629-0.18 0.629-0.4s0.32-0.4 0.712-0.4c0.391 0 0.971-0.36 1.288-0.8s0.897-0.8 1.288-0.8c0.392 0 0.712-0.18 0.712-0.4s0.36-0.4 0.8-0.4 0.8-0.18 0.8-0.4 0.276-0.4 0.613-0.4c1.715 0 3.387-2.659 3.387-5.387 0-1.475-0.174-2.613-0.4-2.613-0.246 0-0.4-2-0.4-5.2v-5.2h-2.604-2.604l-4.996-4.996c-2.748-2.748-4.996-5.268-4.996-5.6s-0.18-0.604-0.4-0.604c-0.254 0-0.4-3.006-0.4-8.218 0-8.786 0.354-10.182 2.582-10.182 0.34 0 0.618-0.18 0.618-0.4s0.36-0.4 0.8-0.4 0.8-0.18 0.8-0.4 0.36-0.4 0.8-0.4 0.8-0.18 0.8-0.4 0.32-0.4 0.712-0.4c0.391 0 0.971-0.36 1.288-0.8s0.897-0.8 1.288-0.8c0.392 0 0.712-0.18 0.712-0.4s0.36-0.4 0.8-0.4 0.8-0.18 0.8-0.4 0.36-0.4 0.8-0.4 0.8-0.18 0.8-0.4 0.36-0.4 0.8-0.4 0.8 0.18 0.8 0.4c0 0.229 1.2 0.4 2.8 0.4s2.8 0.171 2.8 0.4c0 0.22 0.9 0.4 2 0.4s2 0.18 2 0.4c0 0.222 1.067 0.4 2.4 0.4s2.4 0.178 2.4 0.4 1.067 0.4 2.4 0.4 2.4 0.178 2.4 0.4c0 0.22 0.72 0.4 1.6 0.4s1.6 0.18 1.6 0.4 0.9 0.4 2 0.4 2 0.18 2 0.4 0.72 0.4 1.6 0.4 1.6 0.18 1.6 0.4c0 0.242 1.733 0.4 4.4 0.4s4.4-0.158 4.4-0.4c0-0.22 0.464-0.4 1.031-0.4 0.681 0 1.555-0.545 2.569-1.6 0.846-0.88 1.821-1.6 2.169-1.6 0.347 0 0.631-0.18 0.631-0.4s0.9-0.4 2-0.4 2-0.18 2-0.4c0-0.233 1.333-0.4 3.2-0.4s3.2-0.167 3.2-0.4c0-0.237 1.467-0.4 3.6-0.4s3.6-0.163 3.6-0.4c0-0.233 1.333-0.4 3.2-0.4s3.2-0.167 3.2-0.4 1.333-0.4 3.2-0.4 3.2-0.167 3.2-0.4c0-0.22 0.36-0.4 0.8-0.4s0.8 0.18 0.8 0.4c0 0.229 1.2 0.4 2.8 0.4s2.8 0.171 2.8 0.4c0 0.233 1.333 0.4 3.2 0.4s3.2 0.167 3.2 0.4c0 0.237 1.467 0.4 3.6 0.4s3.6 0.163 3.6 0.4c0 0.229 1.2 0.4 2.8 0.4s2.8 0.171 2.8 0.4c0 0.22 0.72 0.4 1.6 0.4s1.6 0.18 1.6 0.4 0.5 0.4 1.112 0.4c0.653 0 1.349 0.33 1.688 0.8 0.317 0.44 0.821 0.8 1.12 0.8 0.298 0 1.234 0.72 2.08 1.6 1.5 1.561 4.4 2.352 4.4 1.2 0-0.22 0.9-0.4 2-0.4s2-0.18 2-0.4 0.9-0.4 2-0.4 2-0.18 2-0.4c0-0.222 1.067-0.4 2.4-0.4s2.4-0.178 2.4-0.4c0-0.22 0.9-0.4 2-0.4s2-0.18 2-0.4 0.9-0.4 2-0.4 2-0.18 2-0.4 0.72-0.4 1.6-0.4 1.6-0.18 1.6-0.4c0-0.237 1.467-0.4 3.6-0.4s3.6-0.163 3.6-0.4c0-0.22 0.54-0.4 1.2-0.4s1.2-0.18 1.2-0.4 0.54-0.4 1.2-0.4 1.2 0.18 1.2 0.4 0.32 0.4 0.712 0.4c0.391 0 0.971 0.36 1.288 0.8s0.897 0.8 1.288 0.8c0.392 0 0.712 0.18 0.712 0.4s0.36 0.4 0.8 0.4 0.8 0.18 0.8 0.4 0.36 0.4 0.8 0.4 0.8 0.18 0.8 0.4 0.32 0.4 0.712 0.4c0.391 0 0.971 0.36 1.288 0.8s0.897 0.8 1.288 0.8c0.392 0 0.712 0.18 0.712 0.4s0.283 0.4 0.629 0.4c1.636 0 1.771 0.763 1.771 9.975v8.832l-5.396 5.397c-5.09 5.089-7.404 6.651-7.404 4.996 0-0.22-0.54-0.4-1.2-0.4h-1.2v8.229c0 8.477 0.161 9.371 1.683 9.371 0.297 0 0.8 0.36 1.117 0.8s0.897 0.8 1.288 0.8c0.392 0 0.712 0.18 0.712 0.4s0.36 0.4 0.8 0.4 0.8 0.18 0.8 0.4 0.36 0.4 0.8 0.4 0.8 0.18 0.8 0.4 0.278 0.4 0.618 0.4c0.972 0 2.582 1.859 2.582 2.982 0 0.56 0.18 1.018 0.4 1.018 0.251 0 0.4 2.533 0.4 6.8s0.149 6.8 0.4 6.8c0.25 0 0.4 2.4 0.4 6.4s0.15 6.4 0.4 6.4c0.22 0 0.4 0.9 0.4 2s-0.18 2-0.4 2-0.4 0.284-0.4 0.631c0 0.348-0.72 1.323-1.6 2.169s-1.6 1.821-1.6 2.169c0 0.347-0.18 0.631-0.4 0.631-0.246 0-0.4 2-0.4 5.2s-0.154 5.2-0.4 5.2c-0.245 0-0.4 1.943-0.4 5.029 0 5.468 0.248 6.171 2.171 6.171 0.566 0 1.029 0.18 1.029 0.4s0.72 0.4 1.6 0.4h1.6v-1.6c0-0.88-0.18-1.6-0.4-1.6-0.25 0-0.4-2.4-0.4-6.4s-0.15-6.4-0.4-6.4c-0.22 0-0.4-0.9-0.4-2s0.18-2 0.4-2 0.4-0.5 0.4-1.112c0-0.653 0.33-1.349 0.8-1.688 0.44-0.317 0.8-0.82 0.8-1.117 0-1.275 1.108-1.683 4.571-1.683 2.019 0 3.429 0.164 3.429 0.4 0 0.229 1.2 0.4 2.8 0.4s2.8 0.171 2.8 0.4c0 0.233 1.333 0.4 3.2 0.4s3.2 0.167 3.2 0.4c0 0.222 1.067 0.4 2.4 0.4s2.4 0.178 2.4 0.4c0 0.607 1.979 0.478 2.629-0.171 0.891-0.892 0.74-2.629-0.229-2.629-0.44 0-0.8-0.18-0.8-0.4 0-0.222-1.067-0.4-2.4-0.4s-2.4-0.178-2.4-0.4-1.067-0.4-2.4-0.4-2.4-0.178-2.4-0.4-1.067-0.4-2.4-0.4-2.4-0.178-2.4-0.4-1.067-0.4-2.4-0.4-2.4-0.178-2.4-0.4-1.067-0.4-2.4-0.4h-2.4v-3.6c0-2.133-0.163-3.6-0.4-3.6-0.254 0-0.4-3.067-0.4-8.4s-0.146-8.4-0.4-8.4c-0.22 0-0.4-0.54-0.4-1.2s0.18-1.2 0.4-1.2 0.4 0.18 0.4 0.4 0.72 0.4 1.6 0.4 1.6 0.18 1.6 0.4 0.72 0.4 1.6 0.4 1.6 0.18 1.6 0.4 0.9 0.4 2 0.4 2 0.18 2 0.4 0.72 0.4 1.6 0.4 1.6 0.18 1.6 0.4 0.72 0.4 1.6 0.4 1.6 0.18 1.6 0.4 0.72 0.4 1.6 0.4 1.6 0.18 1.6 0.4 0.9 0.4 2 0.4 2 0.18 2 0.4 0.72 0.4 1.6 0.4 1.6 0.18 1.6 0.4 0.72 0.4 1.6 0.4 1.6 0.18 1.6 0.4 0.72 0.4 1.6 0.4 1.6 0.18 1.6 0.4 0.72 0.4 1.6 0.4h1.6v-1.6c0-1.511-0.067-1.6-1.2-1.6-0.66 0-1.2-0.18-1.2-0.4s-0.72-0.4-1.6-0.4-1.6-0.18-1.6-0.4-0.54-0.4-1.2-0.4-1.2-0.18-1.2-0.4-0.72-0.4-1.6-0.4-1.6-0.18-1.6-0.4-0.54-0.4-1.2-0.4-1.2-0.18-1.2-0.4-0.72-0.4-1.6-0.4-1.6-0.18-1.6-0.4-0.54-0.4-1.2-0.4-1.2-0.18-1.2-0.4-0.72-0.4-1.6-0.4-1.6-0.18-1.6-0.4-0.54-0.4-1.2-0.4-1.2-0.18-1.2-0.4-0.54-0.4-1.2-0.4-1.2-0.18-1.2-0.4-0.72-0.4-1.6-0.4-1.6-0.18-1.6-0.4-0.72-0.4-1.6-0.4-1.6-0.18-1.6-0.4-0.36-0.4-0.8-0.4-0.8-0.18-0.8-0.4-0.36-0.4-0.8-0.4-0.8-0.18-0.8-0.4-0.32-0.4-0.712-0.4c-0.391 0-0.971-0.36-1.288-0.8s-0.857-0.8-1.2-0.8-0.883-0.36-1.2-0.8-0.897-0.8-1.288-0.8c-0.392 0-0.712-0.18-0.712-0.4s-0.36-0.4-0.8-0.4-0.8-0.18-0.8-0.4-0.278-0.4-0.618-0.4-1.06-0.442-1.6-0.982c-1.234-1.233-1.57-11.818-0.376-11.818 0.686 0 6.594-5.752 6.594-6.42 0-0.237 0.9-1.309 2-2.38s2-2.153 2-2.403c0-0.659 1.04-1.597 1.771-1.597 0.346 0 0.629 0.18 0.629 0.4s0.36 0.4 0.8 0.4 0.8 0.18 0.8 0.4 0.54 0.4 1.2 0.4 1.2 0.18 1.2 0.4 0.54 0.4 1.2 0.4 1.2 0.18 1.2 0.4 0.36 0.4 0.8 0.4 0.8 0.18 0.8 0.4 0.54 0.4 1.2 0.4 1.2 0.18 1.2 0.4 0.54 0.4 1.2 0.4 1.2 0.18 1.2 0.4 0.36 0.4 0.8 0.4 0.8 0.18 0.8 0.4 0.54 0.4 1.2 0.4 1.2 0.18 1.2 0.4 0.54 0.4 1.2 0.4 1.2 0.18 1.2 0.4 0.54 0.4 1.2 0.4 1.2 0.18 1.2 0.4 0.36 0.4 0.8 0.4 0.8 0.18 0.8 0.4 0.54 0.4 1.2 0.4 1.2 0.18 1.2 0.4 0.54 0.4 1.2 0.4 1.2 0.18 1.2 0.4 0.36 0.4 0.8 0.4 0.8 0.18 0.8 0.4 0.54 0.4 1.2 0.4 1.2 0.18 1.2 0.4 0.54 0.4 1.2 0.4 1.2 0.18 1.2 0.4 0.36 0.4 0.8 0.4 0.8 0.18 0.8 0.4 0.54 0.4 1.2 0.4 1.2 0.18 1.2 0.4 0.54 0.4 1.2 0.4c1.022 0 1.2-0.152 1.2-1.029 0-1.157-0.827-2.171-1.771-2.171-0.346 0-0.629-0.18-0.629-0.4s-0.36-0.4-0.8-0.4-0.8-0.18-0.8-0.4-0.36-0.4-0.8-0.4-0.8-0.18-0.8-0.4-0.54-0.4-1.2-0.4-1.2-0.18-1.2-0.4-0.36-0.4-0.8-0.4-0.8-0.18-0.8-0.4-0.36-0.4-0.8-0.4-0.8-0.18-0.8-0.4-0.54-0.4-1.2-0.4-1.2-0.18-1.2-0.4-0.36-0.4-0.8-0.4-0.8-0.18-0.8-0.4-0.54-0.4-1.2-0.4-1.2-0.18-1.2-0.4-0.36-0.4-0.8-0.4-0.8-0.18-0.8-0.4-0.36-0.4-0.8-0.4-0.8-0.18-0.8-0.4-0.54-0.4-1.2-0.4-1.2-0.18-1.2-0.4-0.36-0.4-0.8-0.4-0.8-0.18-0.8-0.4-0.36-0.4-0.8-0.4-0.8-0.18-0.8-0.4-0.54-0.4-1.2-0.4-1.2-0.18-1.2-0.4-0.36-0.4-0.8-0.4-0.8-0.18-0.8-0.4-0.54-0.4-1.2-0.4-1.2-0.18-1.2-0.4-0.36-0.4-0.8-0.4-0.8-0.18-0.8-0.4-0.36-0.4-0.8-0.4-0.8-0.18-0.8-0.4-0.54-0.4-1.2-0.4-1.2-0.18-1.2-0.4-0.278-0.4-0.618-0.4-1.06-0.442-1.6-0.982c-1.396-1.395-1.557-12.618-0.182-12.618 0.44 0 0.8 0.18 0.8 0.4s0.36 0.4 0.8 0.4 0.8 0.18 0.8 0.4 0.36 0.4 0.8 0.4 0.8 0.18 0.8 0.4 0.36 0.4 0.8 0.4 0.8 0.18 0.8 0.4 0.36 0.4 0.8 0.4 0.8 0.18 0.8 0.4 0.36 0.4 0.8 0.4 0.8 0.18 0.8 0.4 0.54 0.4 1.2 0.4 1.2 0.18 1.2 0.4 0.36 0.4 0.8 0.4 0.8 0.18 0.8 0.4 0.36 0.4 0.8 0.4 0.8 0.18 0.8 0.4 0.36 0.4 0.8 0.4 0.8 0.18 0.8 0.4 0.9 0.4 2 0.4c1.956 0 2-0.027 2-1.2 0-0.933-0.178-1.2-0.8-1.2-0.44 0-0.8-0.18-0.8-0.4s-0.36-0.4-0.8-0.4-0.8-0.18-0.8-0.4-0.36-0.4-0.8-0.4-0.8-0.18-0.8-0.4-0.36-0.4-0.8-0.4-0.8-0.18-0.8-0.4-0.36-0.4-0.8-0.4-0.8-0.18-0.8-0.4-0.36-0.4-0.8-0.4-0.8-0.18-0.8-0.4-0.36-0.4-0.8-0.4-0.8-0.18-0.8-0.4-0.54-0.4-1.2-0.4-1.2-0.18-1.2-0.4-0.36-0.4-0.8-0.4-0.8-0.18-0.8-0.4-0.36-0.4-0.8-0.4-0.8-0.18-0.8-0.4-0.36-0.4-0.8-0.4-0.8-0.18-0.8-0.4-0.54-0.4-1.2-0.4c-0.816 0-1.2-0.198-1.2-0.618 0-0.8-1.782-2.582-2.582-2.582-0.34 0-0.618-0.18-0.618-0.4s-0.32-0.4-0.712-0.4c-0.391 0-0.971-0.36-1.288-0.8s-0.897-0.8-1.288-0.8c-0.392 0-0.712-0.18-0.712-0.4s-0.36-0.4-0.8-0.4-0.8-0.18-0.8-0.4-0.36-0.4-0.8-0.4-0.8-0.18-0.8-0.4-0.32-0.4-0.712-0.4c-0.391 0-0.971-0.36-1.288-0.8s-0.897-0.8-1.288-0.8c-0.392 0-0.712-0.18-0.712-0.4s-0.54-0.4-1.2-0.4-1.2-0.18-1.2-0.4-0.36-0.4-0.8-0.4-0.8 0.18-0.8 0.4c0 0.222-1.067 0.4-2.4 0.4s-2.4 0.178-2.4 0.4-1.067 0.4-2.4 0.4c-2.133 0-2.4-0.089-2.4-0.8 0-0.44 0.18-0.8 0.4-0.8 0.577 0 0.493-1.49-0.1-1.767-0.4-0.186-0.4-0.28 0-0.466 0.612-0.286 0.707-5.767 0.1-5.767-0.22 0-0.4-0.36-0.4-0.8s-0.18-0.8-0.4-0.8-0.4-0.32-0.4-0.712c0-0.391-0.36-0.971-0.8-1.288s-0.8-0.857-0.8-1.2-0.36-0.883-0.8-1.2-0.8-0.897-0.8-1.288c0-0.392-0.18-0.712-0.4-0.712s-0.4-0.32-0.4-0.712c0-0.391-0.36-0.971-0.8-1.288s-0.8-0.82-0.8-1.117c0-1.232-1.119-1.683-4.171-1.683-1.753 0-3.029 0.169-3.029 0.4 0 0.22-0.72 0.4-1.6 0.4s-1.6 0.18-1.6 0.4-0.72 0.4-1.6 0.4-1.6 0.18-1.6 0.4-0.72 0.4-1.6 0.4-1.6 0.18-1.6 0.4-0.9 0.4-2 0.4-2 0.18-2 0.4-0.72 0.4-1.6 0.4-1.6 0.18-1.6 0.4-0.72 0.4-1.6 0.4-1.6 0.18-1.6 0.4-0.72 0.4-1.6 0.4-1.6 0.18-1.6 0.4-0.9 0.4-2 0.4-2-0.18-2-0.4-0.32-0.4-0.712-0.4c-0.391 0-0.971-0.36-1.288-0.8s-0.857-0.8-1.2-0.8-0.883-0.36-1.2-0.8-0.857-0.8-1.2-0.8-0.883-0.36-1.2-0.8-0.897-0.8-1.288-0.8c-0.392 0-0.712-0.18-0.712-0.4s-0.72-0.4-1.6-0.4-1.6-0.18-1.6-0.4c0-0.237-1.467-0.4-3.6-0.4s-3.6-0.163-3.6-0.4c0-0.252-2.667-0.4-7.2-0.4s-7.2 0.148-7.2 0.4c0 0.22-0.9 0.4-2 0.4s-2 0.18-2 0.4-0.72 0.4-1.6 0.4-1.6 0.18-1.6 0.4-0.32 0.4-0.712 0.4c-0.391 0-0.971 0.36-1.288 0.8s-0.857 0.8-1.2 0.8-0.883 0.36-1.2 0.8-0.857 0.8-1.2 0.8-0.883 0.36-1.2 0.8c-0.63 0.874-6 1.232-6 0.4 0-0.22-0.72-0.4-1.6-0.4s-1.6-0.18-1.6-0.4-0.72-0.4-1.6-0.4-1.6-0.18-1.6-0.4-0.72-0.4-1.6-0.4-1.6-0.18-1.6-0.4-0.9-0.4-2-0.4-2-0.18-2-0.4-0.72-0.4-1.6-0.4-1.6-0.18-1.6-0.4-0.72-0.4-1.6-0.4-1.6-0.18-1.6-0.4-0.72-0.4-1.6-0.4-1.6-0.18-1.6-0.4-0.72-0.4-1.6-0.4-1.6-0.18-1.6-0.4-0.36-0.4-0.8-0.4-0.8 0.18-0.8 0.4-0.36 0.4-0.8 0.4c-0.533 0-0.8 0.267-0.8 0.8 0 0.44-0.18 0.8-0.4 0.8s-0.4 0.32-0.4 0.712c0 0.391-0.36 0.971-0.8 1.288s-0.8 0.897-0.8 1.288c0 0.392-0.18 0.712-0.4 0.712s-0.4 0.32-0.4 0.712c0 0.391-0.36 0.971-0.8 1.288s-0.8 0.857-0.8 1.2-0.36 0.883-0.8 1.2-0.8 0.897-0.8 1.288c0 0.392-0.18 0.712-0.4 0.712-0.246 0-0.4 2-0.4 5.2v5.2h-2.4c-1.333 0-2.4-0.178-2.4-0.4 0-0.22-0.9-0.4-2-0.4s-2-0.18-2-0.4-0.36-0.4-0.8-0.4-0.8 0.18-0.8 0.4-0.54 0.4-1.2 0.4-1.2 0.18-1.2 0.4-0.36 0.4-0.8 0.4-0.8 0.18-0.8 0.4-0.32 0.4-0.712 0.4c-0.391 0-0.971 0.36-1.288 0.8s-0.897 0.8-1.288 0.8c-0.392 0-0.712 0.18-0.712 0.4s-0.36 0.4-0.8 0.4-0.8 0.18-0.8 0.4-0.36 0.4-0.8 0.4-0.8 0.18-0.8 0.4-0.36 0.4-0.8 0.4-0.8 0.18-0.8 0.4-0.32 0.4-0.712 0.4c-0.391 0-0.971 0.36-1.288 0.8s-0.82 0.8-1.117 0.8c-0.732 0-1.683 1-1.683 1.771 0 0.362-0.339 0.629-0.8 0.629-0.44 0-0.8 0.18-0.8 0.4s-0.36 0.4-0.8 0.4-0.8 0.18-0.8 0.4-0.36 0.4-0.8 0.4-0.8 0.18-0.8 0.4-0.36 0.4-0.8 0.4-0.8 0.18-0.8 0.4-0.36 0.4-0.8 0.4-0.8 0.18-0.8 0.4-0.36 0.4-0.8 0.4-0.8 0.18-0.8 0.4-0.36 0.4-0.8 0.4-0.8 0.18-0.8 0.4-0.36 0.4-0.8 0.4-0.8 0.18-0.8 0.4-0.36 0.4-0.8 0.4-0.8 0.18-0.8 0.4-0.36 0.4-0.8 0.4-0.8 0.18-0.8 0.4-0.36 0.4-0.8 0.4-0.8 0.18-0.8 0.4-0.36 0.4-0.8 0.4-0.8 0.18-0.8 0.4-0.36 0.4-0.8 0.4-0.8 0.18-0.8 0.4-0.36 0.4-0.8 0.4-0.8 0.18-0.8 0.4-0.36 0.4-0.8 0.4-0.8 0.18-0.8 0.4-0.36 0.4-0.8 0.4-0.8 0.18-0.8 0.4-0.36 0.4-0.8 0.4-0.8 0.18-0.8 0.4-0.36 0.4-0.8 0.4-0.8 0.18-0.8 0.4-0.54 0.4-1.2 0.4-1.2 0.18-1.2 0.4-0.36 0.4-0.8 0.4-0.8 0.18-0.8 0.4-0.36 0.4-0.8 0.4-0.8 0.18-0.8 0.4-0.36 0.4-0.8 0.4c-0.533 0-0.8-0.267-0.8-0.8 0-0.44 0.18-0.8 0.4-0.8s0.4-0.72 0.4-1.6 0.18-1.6 0.4-1.6 0.4-0.54 0.4-1.2 0.18-1.2 0.4-1.2 0.4-0.54 0.4-1.2 0.18-1.2 0.4-1.2 0.4-0.36 0.4-0.8 0.18-0.8 0.4-0.8 0.4-0.54 0.4-1.2 0.18-1.2 0.4-1.2 0.4-0.36 0.4-0.8 0.18-0.8 0.4-0.8 0.4-0.54 0.4-1.2 0.18-1.2 0.4-1.2 0.4-0.36 0.4-0.8 0.18-0.8 0.4-0.8 0.4-0.36 0.4-0.8 0.18-0.8 0.4-0.8 0.4-0.36 0.4-0.8 0.18-0.8 0.4-0.8 0.4-0.36 0.4-0.8 0.18-0.8 0.4-0.8 0.4-0.36 0.4-0.8 0.18-0.8 0.4-0.8 0.4-0.36 0.4-0.8 0.18-0.8 0.4-0.8 0.4-0.32 0.4-0.712c0-0.391 0.36-0.971 0.8-1.288s0.8-0.857 0.8-1.2 0.36-0.883 0.8-1.2 0.8-0.857 0.8-1.2 0.36-0.883 0.8-1.2 0.8-0.897 0.8-1.288c0-0.392 0.18-0.712 0.4-0.712s0.4-0.288 0.4-0.64c0-0.351 0.54-1.143 1.2-1.76s1.2-1.369 1.2-1.672 0.36-0.811 0.8-1.128 0.8-0.825 0.8-1.128 0.54-1.055 1.2-1.672 1.2-1.33 1.2-1.586 0.9-1.343 2-2.414 2-2.23 2-2.574c0-0.359 0.341-0.626 0.8-0.626 0.447 0 0.8-0.267 0.8-0.604 0-0.681 8.953-9.796 9.622-9.796 0.236 0 1.307-0.9 2.378-2s2.158-2 2.414-2 0.969-0.54 1.586-1.2 1.337-1.2 1.6-1.2 0.983-0.54 1.6-1.2 1.369-1.2 1.672-1.2 0.811-0.36 1.128-0.8 0.825-0.8 1.128-0.8 1.055-0.54 1.672-1.2 1.369-1.2 1.672-1.2 0.811-0.36 1.128-0.8 0.897-0.8 1.288-0.8c0.392 0 0.712-0.18 0.712-0.4s0.36-0.4 0.8-0.4 0.8-0.18 0.8-0.4 0.36-0.4 0.8-0.4 0.8-0.18 0.8-0.4 0.32-0.4 0.712-0.4c0.391 0 0.971-0.36 1.288-0.8s0.897-0.8 1.288-0.8c0.392 0 0.712-0.18 0.712-0.4s0.36-0.4 0.8-0.4 0.8-0.18 0.8-0.4 0.36-0.4 0.8-0.4 0.8-0.18 0.8-0.4 0.54-0.4 1.2-0.4 1.2-0.18 1.2-0.4 0.36-0.4 0.8-0.4 0.8-0.18 0.8-0.4 0.36-0.4 0.8-0.4 0.8-0.18 0.8-0.4 0.36-0.4 0.8-0.4 0.8-0.18 0.8-0.4 0.54-0.4 1.2-0.4 1.2-0.18 1.2-0.4 0.36-0.4 0.8-0.4 0.8-0.18 0.8-0.4 0.72-0.4 1.6-0.4 1.6-0.18 1.6-0.4 0.54-0.4 1.2-0.4 1.2-0.18 1.2-0.4 0.54-0.4 1.2-0.4 1.2-0.18 1.2-0.4 0.54-0.4 1.2-0.4 1.2-0.18 1.2-0.4 0.54-0.4 1.2-0.4 1.2-0.18 1.2-0.4 0.72-0.4 1.6-0.4 1.6-0.18 1.6-0.4c0-0.222 1.067-0.4 2.4-0.4s2.4-0.178 2.4-0.4 1.067-0.4 2.4-0.4 2.4-0.178 2.4-0.4c0-0.229 1.2-0.4 2.8-0.4s2.8-0.171 2.8-0.4c0-0.242 1.733-0.4 4.4-0.4s4.4-0.158 4.4-0.4c0-0.248 2.133-0.4 5.6-0.4s5.6 0.152 5.6 0.4c0 0.242 1.733 0.4 4.4 0.4s4.4 0.158 4.4 0.4c0 0.229 1.2 0.4 2.8 0.4s2.8 0.171 2.8 0.4c0 0.222 1.067 0.4 2.4 0.4s2.4 0.178 2.4 0.4 1.067 0.4 2.4 0.4 2.4 0.178 2.4 0.4c0 0.22 0.72 0.4 1.6 0.4s1.6 0.18 1.6 0.4 0.54 0.4 1.2 0.4 1.2 0.18 1.2 0.4 0.54 0.4 1.2 0.4 1.2 0.18 1.2 0.4 0.54 0.4 1.2 0.4 1.2 0.18 1.2 0.4 0.54 0.4 1.2 0.4 1.2 0.18 1.2 0.4 0.72 0.4 1.6 0.4 1.6 0.18 1.6 0.4 0.36 0.4 0.8 0.4 0.8 0.18 0.8 0.4 0.36 0.4 0.8 0.4 0.8 0.18 0.8 0.4 0.54 0.4 1.2 0.4 1.2 0.18 1.2 0.4 0.36 0.4 0.8 0.4 0.8 0.18 0.8 0.4 0.36 0.4 0.8 0.4 0.8 0.18 0.8 0.4 0.36 0.4 0.8 0.4 0.8 0.18 0.8 0.4 0.5 0.4 1.112 0.4c0.653 0 1.349 0.33 1.688 0.8 0.317 0.44 0.897 0.8 1.288 0.8 0.392 0 0.712 0.18 0.712 0.4s0.36 0.4 0.8 0.4 0.8 0.18 0.8 0.4 0.36 0.4 0.8 0.4 0.8 0.18 0.8 0.4 0.32 0.4 0.712 0.4c0.391 0 0.971 0.36 1.288 0.8s0.897 0.8 1.288 0.8c0.392 0 0.712 0.18 0.712 0.4s0.32 0.4 0.712 0.4c0.391 0 0.971 0.36 1.288 0.8s0.857 0.8 1.2 0.8 0.883 0.36 1.2 0.8 0.857 0.8 1.2 0.8 0.883 0.36 1.2 0.8 0.825 0.8 1.128 0.8 1.055 0.54 1.672 1.2 1.337 1.2 1.6 1.2 0.983 0.54 1.6 1.2 1.32 1.2 1.563 1.2c0.568 0 17.637 17.055 17.637 17.624 0 0.235 0.9 1.305 2 2.376s2 2.158 2 2.414 0.54 0.969 1.2 1.586 1.2 1.369 1.2 1.672 0.36 0.811 0.8 1.128 0.8 0.857 0.8 1.2 0.36 0.883 0.8 1.2 0.8 0.857 0.8 1.2 0.36 0.883 0.8 1.2 0.8 0.897 0.8 1.288c0 0.392 0.18 0.712 0.4 0.712s0.4 0.32 0.4 0.712c0 0.391 0.36 0.971 0.8 1.288s0.8 0.897 0.8 1.288c0 0.392 0.18 0.712 0.4 0.712s0.4 0.36 0.4 0.8 0.18 0.8 0.4 0.8 0.4 0.36 0.4 0.8 0.18 0.8 0.4 0.8 0.4 0.36 0.4 0.8 0.18 0.8 0.4 0.8 0.4 0.36 0.4 0.8 0.18 0.8 0.4 0.8 0.4 0.36 0.4 0.8 0.18 0.8 0.4 0.8 0.4 0.36 0.4 0.8 0.18 0.8 0.4 0.8 0.4 0.36 0.4 0.8 0.18 0.8 0.4 0.8 0.4 0.54 0.4 1.2 0.18 1.2 0.4 1.2 0.4 0.36 0.4 0.8 0.18 0.8 0.4 0.8 0.4 0.36 0.4 0.8 0.18 0.8 0.4 0.8 0.4 0.36 0.4 0.8 0.18 0.8 0.4 0.8 0.4 0.72 0.4 1.6 0.18 1.6 0.4 1.6 0.4 0.36 0.4 0.8c0 0.533-0.267 0.8-0.8 0.8-0.44 0-0.8-0.18-0.8-0.4s-0.54-0.4-1.2-0.4c-1.133 0-1.2 0.089-1.2 1.6 0 1.333 0.133 1.6 0.8 1.6 0.44 0 0.8 0.18 0.8 0.4s0.54 0.4 1.2 0.4 1.2 0.18 1.2 0.4 0.36 0.4 0.8 0.4c0.533 0 0.8 0.267 0.8 0.8 0 0.44 0.18 0.8 0.4 0.8s0.4 0.72 0.4 1.6 0.18 1.6 0.4 1.6 0.4 0.54 0.4 1.2 0.18 1.2 0.4 1.2 0.4 1.003 0.4 2.229c0 3.571-0.957 3.371 16.171 3.371h15.029v-2.4c0-1.333-0.178-2.4-0.4-2.4-0.22 0-0.4-0.9-0.4-2s-0.18-2-0.4-2-0.4-0.9-0.4-2-0.18-2-0.4-2-0.4-0.72-0.4-1.6-0.18-1.6-0.4-1.6-0.4-0.72-0.4-1.6-0.18-1.6-0.4-1.6-0.4-0.54-0.4-1.2-0.18-1.2-0.4-1.2-0.4-0.72-0.4-1.6-0.18-1.6-0.4-1.6-0.4-0.54-0.4-1.2-0.18-1.2-0.4-1.2-0.4-0.54-0.4-1.2-0.18-1.2-0.4-1.2-0.4-0.54-0.4-1.2-0.18-1.2-0.4-1.2-0.4-0.36-0.4-0.8-0.18-0.8-0.4-0.8-0.4-0.54-0.4-1.2-0.18-1.2-0.4-1.2-0.4-0.36-0.4-0.8-0.18-0.8-0.4-0.8-0.4-0.54-0.4-1.2-0.18-1.2-0.4-1.2-0.4-0.36-0.4-0.8-0.18-0.8-0.4-0.8-0.4-0.36-0.4-0.8-0.18-0.8-0.4-0.8-0.4-0.54-0.4-1.2-0.18-1.2-0.4-1.2-0.4-0.36-0.4-0.8-0.18-0.8-0.4-0.8-0.4-0.36-0.4-0.8-0.18-0.8-0.4-0.8-0.4-0.36-0.4-0.8-0.18-0.8-0.4-0.8-0.4-0.36-0.4-0.8-0.18-0.8-0.4-0.8-0.4-0.32-0.4-0.712c0-0.391-0.36-0.971-0.8-1.288s-0.8-0.897-0.8-1.288c0-0.392-0.18-0.712-0.4-0.712s-0.4-0.36-0.4-0.8-0.18-0.8-0.4-0.8-0.4-0.32-0.4-0.712c0-0.391-0.36-0.971-0.8-1.288s-0.8-0.897-0.8-1.288c0-0.392-0.18-0.712-0.4-0.712s-0.4-0.32-0.4-0.712c0-0.391-0.36-0.971-0.8-1.288s-0.8-0.857-0.8-1.2-0.36-0.883-0.8-1.2-0.8-0.857-0.8-1.2-0.36-0.883-0.8-1.2-0.8-0.825-0.8-1.128-0.54-1.055-1.2-1.672-1.2-1.337-1.2-1.6-0.54-0.983-1.2-1.6-1.2-1.333-1.2-1.592-0.72-1.162-1.6-2.008-1.6-1.741-1.6-1.991c0-0.249-1.08-1.513-2.4-2.809s-2.4-2.547-2.4-2.781c0-0.557-10.662-11.219-11.219-11.219-0.234 0-1.485-1.08-2.781-2.4s-2.56-2.4-2.809-2.4c-0.25 0-1.145-0.72-1.991-1.6s-1.749-1.6-2.008-1.6-0.975-0.54-1.592-1.2-1.337-1.2-1.6-1.2-0.983-0.54-1.6-1.2-1.369-1.2-1.672-1.2-0.811-0.36-1.128-0.8-0.857-0.8-1.2-0.8-0.883-0.36-1.2-0.8-0.857-0.8-1.2-0.8-0.883-0.36-1.2-0.8-0.897-0.8-1.288-0.8c-0.392 0-0.712-0.18-0.712-0.4s-0.32-0.4-0.712-0.4c-0.391 0-0.971-0.36-1.288-0.8s-0.897-0.8-1.288-0.8c-0.392 0-0.712-0.18-0.712-0.4s-0.36-0.4-0.8-0.4-0.8-0.18-0.8-0.4-0.32-0.4-0.712-0.4c-0.391 0-0.971-0.36-1.288-0.8s-0.897-0.8-1.288-0.8c-0.392 0-0.712-0.18-0.712-0.4s-0.36-0.4-0.8-0.4-0.8-0.18-0.8-0.4-0.36-0.4-0.8-0.4-0.8-0.18-0.8-0.4-0.36-0.4-0.8-0.4-0.8-0.18-0.8-0.4-0.36-0.4-0.8-0.4-0.8-0.18-0.8-0.4-0.54-0.4-1.2-0.4-1.2-0.18-1.2-0.4-0.36-0.4-0.8-0.4-0.8-0.18-0.8-0.4-0.36-0.4-0.8-0.4-0.8-0.18-0.8-0.4-0.54-0.4-1.2-0.4-1.2-0.18-1.2-0.4-0.36-0.4-0.8-0.4-0.8-0.18-0.8-0.4-0.54-0.4-1.2-0.4-1.2-0.18-1.2-0.4-0.36-0.4-0.8-0.4-0.8-0.18-0.8-0.4-0.54-0.4-1.2-0.4-1.2-0.18-1.2-0.4-0.54-0.4-1.2-0.4-1.2-0.18-1.2-0.4-0.54-0.4-1.2-0.4-1.2-0.18-1.2-0.4-0.72-0.4-1.6-0.4-1.6-0.18-1.6-0.4-0.54-0.4-1.2-0.4-1.2-0.18-1.2-0.4-0.72-0.4-1.6-0.4-1.6-0.18-1.6-0.4-0.72-0.4-1.6-0.4-1.6-0.18-1.6-0.4-0.9-0.4-2-0.4-2-0.18-2-0.4-0.9-0.4-2-0.4-2-0.18-2-0.4c0-0.229-1.2-0.4-2.8-0.4s-2.8-0.171-2.8-0.4c0-0.233-1.333-0.4-3.2-0.4s-3.2-0.167-3.2-0.4c0-0.26-5.867-0.4-16.8-0.4s-16.8 0.14-16.8 0.4m32.8 10.4c0 0.233 1.333 0.4 3.2 0.4s3.2 0.167 3.2 0.4c0 0.222 1.067 0.4 2.4 0.4s2.4 0.178 2.4 0.4c0 0.22 0.9 0.4 2 0.4s2 0.18 2 0.4 0.72 0.4 1.6 0.4 1.6 0.18 1.6 0.4 0.72 0.4 1.6 0.4 1.6 0.18 1.6 0.4 0.72 0.4 1.6 0.4 1.6 0.18 1.6 0.4 0.72 0.4 1.6 0.4 1.6 0.18 1.6 0.4 0.54 0.4 1.2 0.4 1.2 0.18 1.2 0.4 0.54 0.4 1.2 0.4 1.2 0.18 1.2 0.4 0.54 0.4 1.2 0.4 1.2 0.18 1.2 0.4 0.54 0.4 1.2 0.4 1.2 0.18 1.2 0.4 0.36 0.4 0.8 0.4 0.8 0.18 0.8 0.4 0.54 0.4 1.2 0.4 1.2 0.18 1.2 0.4 0.36 0.4 0.8 0.4 0.8 0.18 0.8 0.4 0.36 0.4 0.8 0.4 0.8 0.18 0.8 0.4 0.54 0.4 1.2 0.4 1.2 0.18 1.2 0.4 0.36 0.4 0.8 0.4 0.8 0.18 0.8 0.4 0.36 0.4 0.8 0.4 0.8 0.18 0.8 0.4 0.36 0.4 0.8 0.4 0.8 0.18 0.8 0.4 0.36 0.4 0.8 0.4 0.8 0.18 0.8 0.4 0.36 0.4 0.8 0.4 0.8 0.18 0.8 0.4 0.36 0.4 0.8 0.4 0.8 0.18 0.8 0.4 0.32 0.4 0.712 0.4c0.391 0 0.971 0.36 1.288 0.8s0.897 0.8 1.288 0.8c0.392 0 0.712 0.18 0.712 0.4s0.32 0.4 0.712 0.4c0.391 0 0.971 0.36 1.288 0.8s0.897 0.8 1.288 0.8c0.392 0 0.712 0.18 0.712 0.4s0.32 0.4 0.712 0.4c0.391 0 0.971 0.36 1.288 0.8s0.857 0.8 1.2 0.8 0.883 0.36 1.2 0.8 0.825 0.8 1.128 0.8 1.055 0.54 1.672 1.2 1.369 1.2 1.672 1.2 0.811 0.36 1.128 0.8 0.821 0.8 1.12 0.8c0.298 0 1.234 0.72 2.08 1.6s1.741 1.6 1.991 1.6c0.249 0 1.513 1.08 2.809 2.4s2.547 2.4 2.781 2.4c0.556 0 12.019 11.463 12.019 12.019 0 0.234 1.08 1.485 2.4 2.781s2.4 2.56 2.4 2.809c0 0.25 0.72 1.145 1.6 1.991s1.6 1.782 1.6 2.08c0 0.299 0.36 0.803 0.8 1.12s0.8 0.825 0.8 1.128 0.54 1.055 1.2 1.672 1.2 1.369 1.2 1.672 0.36 0.811 0.8 1.128 0.8 0.857 0.8 1.2 0.36 0.883 0.8 1.2 0.8 0.897 0.8 1.288c0 0.392 0.18 0.712 0.4 0.712s0.4 0.32 0.4 0.712c0 0.391 0.36 0.971 0.8 1.288s0.8 0.897 0.8 1.288c0 0.392 0.18 0.712 0.4 0.712s0.4 0.32 0.4 0.712c0 0.391 0.36 0.971 0.8 1.288s0.8 0.897 0.8 1.288c0 0.392 0.18 0.712 0.4 0.712s0.4 0.36 0.4 0.8 0.18 0.8 0.4 0.8 0.4 0.36 0.4 0.8 0.18 0.8 0.4 0.8 0.4 0.36 0.4 0.8 0.18 0.8 0.4 0.8 0.4 0.36 0.4 0.8 0.18 0.8 0.4 0.8 0.4 0.36 0.4 0.8 0.18 0.8 0.4 0.8 0.4 0.36 0.4 0.8 0.18 0.8 0.4 0.8 0.4 0.54 0.4 1.2 0.18 1.2 0.4 1.2 0.4 0.36 0.4 0.8 0.18 0.8 0.4 0.8 0.4 0.36 0.4 0.8 0.18 0.8 0.4 0.8 0.4 0.54 0.4 1.2 0.18 1.2 0.4 1.2 0.4 0.36 0.4 0.8 0.18 0.8 0.4 0.8 0.4 0.54 0.4 1.2 0.18 1.2 0.4 1.2 0.4 0.54 0.4 1.2 0.18 1.2 0.4 1.2 0.4 0.54 0.4 1.2 0.18 1.2 0.4 1.2 0.4 0.54 0.4 1.2 0.18 1.2 0.4 1.2 0.4 0.72 0.4 1.6 0.18 1.6 0.4 1.6 0.4 0.72 0.4 1.6 0.18 1.6 0.4 1.6 0.4 0.72 0.4 1.6 0.18 1.6 0.4 1.6 0.4 0.54 0.4 1.2v1.2h-5.2c-4.933 0-5.2-0.041-5.2-0.8 0-0.44-0.18-0.8-0.4-0.8s-0.4-0.72-0.4-1.6-0.18-1.6-0.4-1.6-0.4-0.9-0.4-2-0.18-2-0.4-2-0.4-0.54-0.4-1.2-0.18-1.2-0.4-1.2-0.4-0.36-0.4-0.8-0.18-0.8-0.4-0.8-0.4-0.54-0.4-1.2-0.18-1.2-0.4-1.2-0.4-0.36-0.4-0.8-0.18-0.8-0.4-0.8-0.4-0.54-0.4-1.2-0.18-1.2-0.4-1.2-0.4-0.36-0.4-0.8-0.18-0.8-0.4-0.8-0.4-0.72-0.4-1.6-0.18-1.6-0.4-1.6-0.4-0.36-0.4-0.8-0.18-0.8-0.4-0.8-0.4-0.36-0.4-0.8-0.18-0.8-0.4-0.8-0.4-0.36-0.4-0.8-0.18-0.8-0.4-0.8-0.4-0.32-0.4-0.712c0-0.391-0.36-0.971-0.8-1.288s-0.8-0.897-0.8-1.288c0-0.392-0.18-0.712-0.4-0.712s-0.4-0.5-0.4-1.112c0-0.653-0.33-1.349-0.8-1.688-0.44-0.317-0.8-0.897-0.8-1.288 0-0.392-0.18-0.712-0.4-0.712s-0.4-0.32-0.4-0.712c0-0.391-0.36-0.971-0.8-1.288s-0.8-0.897-0.8-1.288c0-0.392-0.18-0.712-0.4-0.712s-0.4-0.32-0.4-0.712c0-0.391-0.36-0.971-0.8-1.288s-0.8-0.857-0.8-1.2-0.36-0.883-0.8-1.2-0.8-0.825-0.8-1.128-0.54-1.055-1.2-1.672-1.2-1.369-1.2-1.672-0.36-0.811-0.8-1.128-0.8-0.821-0.8-1.12c0-0.298-0.72-1.234-1.6-2.08s-1.6-1.74-1.6-1.988-1.26-1.693-2.8-3.212-2.8-2.952-2.8-3.185c0-0.556-8.262-8.815-8.818-8.815-0.234 0-1.486-1.08-2.782-2.4s-2.563-2.4-2.817-2.4-0.966-0.54-1.583-1.2-1.333-1.2-1.592-1.2-1.162-0.72-2.008-1.6-1.821-1.6-2.169-1.6c-0.347 0-0.631-0.18-0.631-0.4s-0.288-0.4-0.64-0.4c-0.351 0-1.143-0.54-1.76-1.2s-1.369-1.2-1.672-1.2-0.811-0.36-1.128-0.8-0.897-0.8-1.288-0.8c-0.392 0-0.712-0.18-0.712-0.4s-0.36-0.4-0.8-0.4-0.8-0.18-0.8-0.4-0.32-0.4-0.712-0.4c-0.391 0-0.971-0.36-1.288-0.8s-0.857-0.8-1.2-0.8-0.883-0.36-1.2-0.8-0.897-0.8-1.288-0.8c-0.392 0-0.712-0.18-0.712-0.4s-0.54-0.4-1.2-0.4-1.2-0.18-1.2-0.4-0.36-0.4-0.8-0.4-0.8-0.18-0.8-0.4-0.36-0.4-0.8-0.4-0.8-0.18-0.8-0.4-0.36-0.4-0.8-0.4-0.8-0.18-0.8-0.4-0.36-0.4-0.8-0.4-0.8-0.18-0.8-0.4-0.36-0.4-0.8-0.4-0.8-0.18-0.8-0.4-0.36-0.4-0.8-0.4-0.8-0.18-0.8-0.4-0.54-0.4-1.2-0.4-1.2-0.18-1.2-0.4-0.54-0.4-1.2-0.4-1.2-0.18-1.2-0.4-0.36-0.4-0.8-0.4-0.8-0.18-0.8-0.4-0.54-0.4-1.2-0.4-1.2-0.18-1.2-0.4-0.54-0.4-1.2-0.4-1.2-0.18-1.2-0.4-0.54-0.4-1.2-0.4-1.2-0.18-1.2-0.4-0.72-0.4-1.6-0.4-1.6-0.18-1.6-0.4-0.72-0.4-1.6-0.4-1.6-0.18-1.6-0.4-0.72-0.4-1.6-0.4-1.6-0.18-1.6-0.4-0.9-0.4-2-0.4-2-0.18-2-0.4-0.72-0.4-1.6-0.4-1.6-0.18-1.6-0.4c0-0.229-1.2-0.4-2.8-0.4s-2.8-0.171-2.8-0.4c0-0.261-6.4-0.4-18.4-0.4s-18.4 0.139-18.4 0.4c0 0.222-1.067 0.4-2.4 0.4s-2.4 0.178-2.4 0.4c0 0.22-0.9 0.4-2 0.4s-2 0.18-2 0.4-0.9 0.4-2 0.4-2 0.18-2 0.4-0.72 0.4-1.6 0.4-1.6 0.18-1.6 0.4-0.72 0.4-1.6 0.4-1.6 0.18-1.6 0.4-0.72 0.4-1.6 0.4-1.6 0.18-1.6 0.4-0.54 0.4-1.2 0.4-1.2 0.18-1.2 0.4-0.54 0.4-1.2 0.4-1.2 0.18-1.2 0.4-0.54 0.4-1.2 0.4-1.2 0.18-1.2 0.4-0.36 0.4-0.8 0.4-0.8 0.18-0.8 0.4-0.54 0.4-1.2 0.4-1.2 0.18-1.2 0.4-0.54 0.4-1.2 0.4-1.2 0.18-1.2 0.4-0.36 0.4-0.8 0.4-0.8 0.18-0.8 0.4-0.36 0.4-0.8 0.4-0.8 0.18-0.8 0.4-0.36 0.4-0.8 0.4-0.8 0.18-0.8 0.4-0.36 0.4-0.8 0.4-0.8 0.18-0.8 0.4-0.36 0.4-0.8 0.4-0.8 0.18-0.8 0.4-0.36 0.4-0.8 0.4-0.8 0.18-0.8 0.4-0.54 0.4-1.2 0.4-1.2 0.18-1.2 0.4-0.32 0.4-0.712 0.4c-0.391 0-0.971 0.36-1.288 0.8s-0.857 0.8-1.2 0.8-0.883 0.36-1.2 0.8-0.897 0.8-1.288 0.8c-0.392 0-0.712 0.18-0.712 0.4s-0.36 0.4-0.8 0.4-0.8 0.18-0.8 0.4-0.32 0.4-0.712 0.4c-0.391 0-0.971 0.36-1.288 0.8s-0.825 0.8-1.128 0.8-1.055 0.54-1.672 1.2-1.409 1.2-1.76 1.2c-0.352 0-0.64 0.18-0.64 0.4s-0.284 0.4-0.631 0.4c-0.348 0-1.323 0.72-2.169 1.6s-1.749 1.6-2.008 1.6-0.975 0.54-1.592 1.2-1.329 1.2-1.583 1.2-1.521 1.08-2.817 2.4-2.548 2.4-2.782 2.4c-0.556 0-8.818 8.259-8.818 8.815 0 0.233-1.26 1.666-2.8 3.185s-2.8 2.964-2.8 3.212-0.72 1.142-1.6 1.988-1.6 1.782-1.6 2.08c0 0.299-0.36 0.803-0.8 1.12s-0.8 0.825-0.8 1.128-0.54 1.055-1.2 1.672-1.2 1.369-1.2 1.672-0.36 0.811-0.8 1.128-0.8 0.857-0.8 1.2-0.36 0.883-0.8 1.2-0.8 0.897-0.8 1.288c0 0.392-0.18 0.712-0.4 0.712s-0.4 0.32-0.4 0.712c0 0.391-0.36 0.971-0.8 1.288s-0.8 0.897-0.8 1.288c0 0.392-0.18 0.712-0.4 0.712s-0.4 0.32-0.4 0.712c0 0.391-0.36 0.971-0.8 1.288-0.47 0.339-0.8 1.035-0.8 1.688 0 0.612-0.18 1.112-0.4 1.112s-0.4 0.32-0.4 0.712c0 0.391-0.36 0.971-0.8 1.288s-0.8 0.897-0.8 1.288c0 0.392-0.18 0.712-0.4 0.712s-0.4 0.36-0.4 0.8-0.18 0.8-0.4 0.8-0.4 0.36-0.4 0.8-0.18 0.8-0.4 0.8-0.4 0.36-0.4 0.8-0.18 0.8-0.4 0.8-0.4 0.72-0.4 1.6-0.18 1.6-0.4 1.6-0.4 0.36-0.4 0.8-0.18 0.8-0.4 0.8-0.4 0.54-0.4 1.2-0.18 1.2-0.4 1.2-0.4 0.36-0.4 0.8-0.18 0.8-0.4 0.8-0.4 0.54-0.4 1.2-0.18 1.2-0.4 1.2-0.4 0.36-0.4 0.8-0.18 0.8-0.4 0.8-0.4 0.54-0.4 1.2-0.18 1.2-0.4 1.2-0.4 0.9-0.4 2-0.18 2-0.4 2-0.4 0.72-0.4 1.6-0.18 1.6-0.4 1.6-0.4 0.36-0.4 0.8c0 0.759-0.267 0.8-5.2 0.8h-5.2v-1.2c0-0.66 0.18-1.2 0.4-1.2s0.4-0.72 0.4-1.6 0.18-1.6 0.4-1.6 0.4-0.72 0.4-1.6 0.18-1.6 0.4-1.6 0.4-0.72 0.4-1.6 0.18-1.6 0.4-1.6 0.4-0.54 0.4-1.2 0.18-1.2 0.4-1.2 0.4-0.54 0.4-1.2 0.18-1.2 0.4-1.2 0.4-0.54 0.4-1.2 0.18-1.2 0.4-1.2 0.4-0.54 0.4-1.2 0.18-1.2 0.4-1.2 0.4-0.36 0.4-0.8 0.18-0.8 0.4-0.8 0.4-0.54 0.4-1.2 0.18-1.2 0.4-1.2 0.4-0.36 0.4-0.8 0.18-0.8 0.4-0.8 0.4-0.36 0.4-0.8 0.18-0.8 0.4-0.8 0.4-0.54 0.4-1.2 0.18-1.2 0.4-1.2 0.4-0.36 0.4-0.8 0.18-0.8 0.4-0.8 0.4-0.36 0.4-0.8 0.18-0.8 0.4-0.8 0.4-0.36 0.4-0.8 0.18-0.8 0.4-0.8 0.4-0.36 0.4-0.8 0.18-0.8 0.4-0.8 0.4-0.36 0.4-0.8 0.18-0.8 0.4-0.8 0.4-0.36 0.4-0.8 0.18-0.8 0.4-0.8 0.4-0.32 0.4-0.712c0-0.391 0.36-0.971 0.8-1.288s0.8-0.897 0.8-1.288c0-0.392 0.18-0.712 0.4-0.712s0.4-0.32 0.4-0.712c0-0.391 0.36-0.971 0.8-1.288s0.8-0.897 0.8-1.288c0-0.392 0.18-0.712 0.4-0.712s0.4-0.32 0.4-0.712c0-0.391 0.36-0.971 0.8-1.288s0.8-0.857 0.8-1.2 0.36-0.883 0.8-1.2 0.8-0.825 0.8-1.128 0.54-1.055 1.2-1.672 1.2-1.369 1.2-1.672 0.36-0.811 0.8-1.128 0.8-0.821 0.8-1.12c0-0.298 0.72-1.234 1.6-2.08s1.6-1.741 1.6-1.991c0-0.249 1.08-1.513 2.4-2.809s2.4-2.547 2.4-2.781 2.608-3.034 5.797-6.222c3.188-3.189 5.988-5.797 6.222-5.797s1.485-1.08 2.781-2.4 2.56-2.4 2.809-2.4c0.25 0 1.145-0.72 1.991-1.6s1.782-1.6 2.08-1.6c0.299 0 0.803-0.36 1.12-0.8s0.825-0.8 1.128-0.8 1.055-0.54 1.672-1.2 1.369-1.2 1.672-1.2 0.811-0.36 1.128-0.8 0.857-0.8 1.2-0.8 0.883-0.36 1.2-0.8 0.897-0.8 1.288-0.8c0.392 0 0.712-0.18 0.712-0.4s0.32-0.4 0.712-0.4c0.391 0 0.971-0.36 1.288-0.8s0.897-0.8 1.288-0.8c0.392 0 0.712-0.18 0.712-0.4s0.32-0.4 0.712-0.4c0.391 0 0.971-0.36 1.288-0.8s0.897-0.8 1.288-0.8c0.392 0 0.712-0.18 0.712-0.4s0.36-0.4 0.8-0.4 0.8-0.18 0.8-0.4 0.36-0.4 0.8-0.4 0.8-0.18 0.8-0.4 0.36-0.4 0.8-0.4 0.8-0.18 0.8-0.4 0.36-0.4 0.8-0.4 0.8-0.18 0.8-0.4 0.36-0.4 0.8-0.4 0.8-0.18 0.8-0.4 0.36-0.4 0.8-0.4 0.8-0.18 0.8-0.4 0.54-0.4 1.2-0.4 1.2-0.18 1.2-0.4 0.36-0.4 0.8-0.4 0.8-0.18 0.8-0.4 0.36-0.4 0.8-0.4 0.8-0.18 0.8-0.4 0.54-0.4 1.2-0.4 1.2-0.18 1.2-0.4 0.36-0.4 0.8-0.4 0.8-0.18 0.8-0.4 0.54-0.4 1.2-0.4 1.2-0.18 1.2-0.4 0.54-0.4 1.2-0.4 1.2-0.18 1.2-0.4 0.54-0.4 1.2-0.4 1.2-0.18 1.2-0.4 0.54-0.4 1.2-0.4 1.2-0.18 1.2-0.4 0.72-0.4 1.6-0.4 1.6-0.18 1.6-0.4 0.72-0.4 1.6-0.4 1.6-0.18 1.6-0.4 0.72-0.4 1.6-0.4 1.6-0.18 1.6-0.4 0.72-0.4 1.6-0.4 1.6-0.18 1.6-0.4 0.9-0.4 2-0.4 2-0.18 2-0.4c0-0.222 1.067-0.4 2.4-0.4s2.4-0.178 2.4-0.4c0-0.233 1.333-0.4 3.2-0.4s3.2-0.167 3.2-0.4c0-0.26 5.333-0.4 15.2-0.4s15.2 0.14 15.2 0.4m-4.8 69.6c0 0.233 1.333 0.4 3.2 0.4s3.2 0.167 3.2 0.4c0 0.22 0.54 0.4 1.2 0.4s1.2 0.18 1.2 0.4 0.36 0.4 0.8 0.4 0.8 0.18 0.8 0.4 0.32 0.4 0.712 0.4c0.391 0 0.971 0.36 1.288 0.8s0.82 0.8 1.117 0.8c0.724 0 1.856 1.165 1.476 1.519-0.166 0.155-0.383 0.056-0.481-0.219-0.12-0.335-1.094-0.5-2.945-0.5-1.578 0-2.767-0.172-2.767-0.4 0-0.229-1.2-0.4-2.8-0.4s-2.8-0.171-2.8-0.4c0-0.233-1.333-0.4-3.2-0.4s-3.2-0.167-3.2-0.4c0-0.237-1.467-0.4-3.6-0.4s-3.6 0.163-3.6 0.4c0 0.233-1.333 0.4-3.2 0.4s-3.2 0.167-3.2 0.4c0 0.222-1.067 0.4-2.4 0.4s-2.4 0.178-2.4 0.4c0 0.22-0.72 0.4-1.6 0.4s-1.6-0.18-1.6-0.4 0.36-0.4 0.8-0.4 0.8-0.18 0.8-0.4 0.32-0.4 0.712-0.4c0.391 0 0.971-0.36 1.288-0.8s0.897-0.8 1.288-0.8c0.392 0 0.712-0.18 0.712-0.4s0.72-0.4 1.6-0.4 1.6-0.18 1.6-0.4c0-0.244 1.867-0.4 4.8-0.4s4.8-0.156 4.8-0.4c0-0.233 1.333-0.4 3.2-0.4s3.2 0.167 3.2 0.4m-55.2 4c0 0.22 0.9 0.4 2 0.4s2 0.18 2 0.4 0.72 0.4 1.6 0.4 1.6 0.18 1.6 0.4 0.72 0.4 1.6 0.4 1.6 0.18 1.6 0.4 0.9 0.4 2 0.4 2 0.18 2 0.4 0.823 0.4 1.829 0.4c1.82 0 3.811 1.12 2.667 1.501-0.273 0.091-0.496 0.511-0.496 0.932 0 0.422-0.18 0.767-0.4 0.767s-0.4 0.36-0.4 0.8-0.18 0.8-0.4 0.8-0.4 0.32-0.4 0.712c0 0.391-0.36 0.971-0.8 1.288s-0.8 0.897-0.8 1.288c0 0.392-0.18 0.712-0.4 0.712s-0.4 0.36-0.4 0.8-0.18 0.8-0.4 0.8-0.4 0.32-0.4 0.712c0 0.391-0.36 0.971-0.8 1.288s-0.8 0.897-0.8 1.288c0 0.392-0.18 0.712-0.4 0.712s-0.4 0.283-0.4 0.629c0 0.876-1.281 2.128-1.501 1.467-0.094-0.282-0.841-0.496-1.732-0.496-0.862 0-1.567-0.18-1.567-0.4s-0.72-0.4-1.6-0.4-1.6-0.18-1.6-0.4-0.72-0.4-1.6-0.4-1.6-0.18-1.6-0.4-0.36-0.4-0.8-0.4c-0.693 0-0.8-0.267-0.8-2 0-1.1-0.18-2-0.4-2-0.249 0-0.4-2.267-0.4-6s-0.151-6-0.4-6c-0.22 0-0.4-0.36-0.4-0.8 0-0.667 0.267-0.8 1.6-0.8 0.88 0 1.6 0.18 1.6 0.4m103.2 1.6c0 1.1-0.18 2-0.4 2-0.251 0-0.4 2.476-0.4 6.629 0 7.188-0.163 7.771-2.171 7.771-0.566 0-1.029 0.18-1.029 0.4s-0.9 0.4-2 0.4-2 0.18-2 0.4-0.72 0.4-1.6 0.4-1.6 0.18-1.6 0.4-0.458 0.4-1.018 0.4c-1.123 0-2.982-1.61-2.982-2.582 0-0.34-0.18-0.618-0.4-0.618s-0.4-0.36-0.4-0.8-0.18-0.8-0.4-0.8-0.4-0.32-0.4-0.712c0-0.391-0.36-0.971-0.8-1.288s-0.8-0.897-0.8-1.288c0-0.392-0.18-0.712-0.4-0.712s-0.4-0.32-0.4-0.712c0-0.391-0.36-0.971-0.8-1.288s-0.8-0.897-0.8-1.288c0-0.392-0.18-0.712-0.4-0.712s-0.4-0.36-0.4-0.8-0.18-0.8-0.4-0.8-0.4-0.54-0.4-1.2c0-1.173 0.044-1.2 2-1.2 1.1 0 2-0.18 2-0.4s0.9-0.4 2-0.4 2-0.18 2-0.4 0.72-0.4 1.6-0.4 1.6-0.18 1.6-0.4 0.72-0.4 1.6-0.4 1.6-0.18 1.6-0.4 0.9-0.4 2-0.4 2-0.18 2-0.4 0.9-0.4 2-0.4h2v2m-109.6 3.6c0 2.4 0.16 4 0.4 4 0.242 0 0.4 1.733 0.4 4.4s-0.158 4.4-0.4 4.4c-0.22 0-0.4-0.18-0.4-0.4s-0.54-0.4-1.2-0.4-1.2-0.18-1.2-0.4-0.463-0.4-1.029-0.4c-1.672 0-2.171-0.859-2.171-3.738 0-1.685-0.175-2.677-0.5-2.829-0.4-0.186-0.4-0.28 0-0.466 0.275-0.129 0.5-0.759 0.5-1.4 0-0.642 0.18-1.167 0.4-1.167s0.4-0.274 0.4-0.608c0-0.594 3.907-4.903 4.5-4.962 0.165-0.017 0.3 1.77 0.3 3.97m114.61-2.613c0.763 0.762 1.387 1.59 1.387 1.839s0.54 0.957 1.2 1.574c1.585 1.481 1.928 10.4 0.4 10.4-0.44 0-0.8 0.18-0.8 0.4s-0.54 0.4-1.2 0.4-1.2 0.18-1.2 0.4-0.54 0.4-1.2 0.4-1.2 0.18-1.2 0.4-0.18 0.4-0.4 0.4-0.4-0.54-0.4-1.2 0.18-1.2 0.4-1.2c0.251 0 0.4-2.606 0.4-7.017 0-5.044 0.141-7.176 0.5-7.585 0.658-0.747 0.531-0.794 2.113 0.789m-81.013 5.413c0 0.22-0.32 0.4-0.712 0.4-0.391 0-0.971 0.36-1.288 0.8s-0.857 0.8-1.2 0.8-0.883 0.36-1.2 0.8-0.882 0.8-1.255 0.8-0.759 0.225-0.857 0.5-0.31 0.378-0.472 0.228c-0.535-0.496 3.286-3.928 4.373-3.928 0.556 0 1.011-0.18 1.011-0.4s0.36-0.4 0.8-0.4 0.8 0.18 0.8 0.4m26.4 0c0 0.22 0.9 0.4 2 0.4s2 0.18 2 0.4c0 0.229 1.2 0.4 2.8 0.4s2.8 0.171 2.8 0.4c0 0.222 1.067 0.4 2.4 0.4s2.4 0.178 2.4 0.4c0 0.22 0.642 0.4 1.426 0.4 1.185 0 1.755 0.338 3.374 2 1.071 1.1 2.153 2 2.403 2 0.659 0 1.746 1.188 1.39 1.519-0.166 0.155-0.383 0.056-0.481-0.219-0.123-0.343-1.174-0.5-3.345-0.5-1.845 0-3.167-0.167-3.167-0.4 0-0.229-1.2-0.4-2.8-0.4s-2.8-0.171-2.8-0.4c0-0.222-1.067-0.4-2.4-0.4s-2.4-0.178-2.4-0.4c0-0.229-1.2-0.4-2.8-0.4s-2.8-0.171-2.8-0.4c0-0.244-1.867-0.4-4.8-0.4s-4.8 0.156-4.8 0.4c0 0.233-1.333 0.4-3.2 0.4s-3.2 0.167-3.2 0.4c0 0.229-1.2 0.4-2.8 0.4s-2.8 0.171-2.8 0.4-1.2 0.4-2.8 0.4-2.8 0.171-2.8 0.4c0 0.22-0.54 0.4-1.2 0.4s-1.2-0.103-1.2-0.229c0-0.409 1.131-1.371 1.611-1.371 0.257 0 0.972-0.54 1.589-1.2s1.369-1.2 1.672-1.2 0.811-0.36 1.128-0.8c0.438-0.608 1.035-0.8 2.488-0.8 1.052 0 1.912-0.18 1.912-0.4 0-0.222 1.067-0.4 2.4-0.4s2.4-0.178 2.4-0.4c0-0.242 1.733-0.4 4.4-0.4s4.4-0.158 4.4-0.4c0-0.229 1.2-0.4 2.8-0.4s2.8 0.171 2.8 0.4m20.8 0c0 0.22 0.454 0.4 1.009 0.4 1.09 0 5.715 4.227 5.174 4.729-0.161 0.149-0.373 0.046-0.471-0.229s-0.664-0.5-1.257-0.5c-0.62 0-1.324-0.34-1.655-0.8-0.317-0.44-0.825-0.8-1.128-0.8s-1.055-0.54-1.672-1.2-1.409-1.2-1.76-1.2c-0.352 0-0.64-0.18-0.64-0.4s0.54-0.4 1.2-0.4 1.2 0.18 1.2 0.4m-25.6 16c0 0.229-1.2 0.4-2.8 0.4s-2.8 0.171-2.8 0.4-1.2 0.4-2.8 0.4-2.8 0.171-2.8 0.4c0 0.233-1.333 0.4-3.2 0.4s-3.2 0.167-3.2 0.4-1.333 0.4-3.2 0.4-3.2 0.167-3.2 0.4c0 0.229-1.2 0.4-2.8 0.4s-2.8 0.171-2.8 0.4c0 0.233-1.333 0.4-3.2 0.4s-3.2 0.167-3.2 0.4-1.333 0.4-3.2 0.4-3.2 0.167-3.2 0.4c0 0.222-1.067 0.4-2.4 0.4s-2.4 0.178-2.4 0.4c0 0.237-1.467 0.4-3.6 0.4s-3.6 0.163-3.6 0.4c0 0.22-0.36 0.4-0.8 0.4s-0.8 0.18-0.8 0.4-0.32 0.4-0.712 0.4c-0.391 0-0.971 0.36-1.288 0.8s-0.857 0.8-1.2 0.8-0.883 0.36-1.2 0.8-0.857 0.8-1.2 0.8-0.883 0.36-1.2 0.8-0.825 0.8-1.128 0.8-1.055 0.54-1.672 1.2-1.325 1.2-1.574 1.2-1.077 0.624-1.839 1.387l-1.387 1.386v6.442c0 6.871 0.188 7.585 2 7.585 1.154 0 2-0.919 2-2.171 0-0.566 0.18-1.029 0.4-1.029 0.233 0 0.4-1.333 0.4-3.2s0.167-3.2 0.4-3.2c0.22 0 0.4-0.458 0.4-1.018 0-1.033 1.583-2.982 2.421-2.982 0.252 0 0.962-0.54 1.579-1.2s1.369-1.2 1.672-1.2 0.811-0.36 1.128-0.8 0.857-0.8 1.2-0.8 0.883-0.36 1.2-0.8 0.897-0.8 1.288-0.8c0.392 0 0.712-0.18 0.712-0.4s0.54-0.4 1.2-0.4 1.2-0.18 1.2-0.4 0.54-0.4 1.2-0.4 1.2-0.18 1.2-0.4c0-0.244 1.867-0.4 4.8-0.4s4.8-0.156 4.8-0.4c0-0.233 1.333-0.4 3.2-0.4s3.2-0.167 3.2-0.4 1.333-0.4 3.2-0.4 3.2-0.167 3.2-0.4 1.333-0.4 3.2-0.4 3.2-0.167 3.2-0.4 1.333-0.4 3.2-0.4 3.2-0.167 3.2-0.4 1.333-0.4 3.2-0.4 3.2-0.167 3.2-0.4c0-0.237 1.467-0.4 3.6-0.4s3.6-0.163 3.6-0.4c0-0.233 1.333-0.4 3.2-0.4s3.2 0.167 3.2 0.4c0 0.229 1.2 0.4 2.8 0.4s2.8 0.171 2.8 0.4 1.2 0.4 2.8 0.4 2.8 0.171 2.8 0.4c0 0.237 1.467 0.4 3.6 0.4s3.6 0.163 3.6 0.4 1.467 0.4 3.6 0.4 3.6 0.163 3.6 0.4c0 0.233 1.333 0.4 3.2 0.4s3.2 0.167 3.2 0.4 1.333 0.4 3.2 0.4 3.2 0.167 3.2 0.4c0 0.237 1.467 0.4 3.6 0.4s3.6 0.163 3.6 0.4c0 0.22 0.9 0.4 2 0.4s2 0.18 2 0.4 0.288 0.4 0.64 0.4c0.351 0 1.143 0.54 1.76 1.2s1.337 1.2 1.6 1.2 0.983 0.54 1.6 1.2 1.369 1.2 1.672 1.2 0.811 0.36 1.128 0.8 0.815 0.8 1.106 0.8c0.899 0 2.494 1.908 2.494 2.982 0 0.56 0.18 1.018 0.4 1.018 0.233 0 0.4 1.333 0.4 3.2s0.167 3.2 0.4 3.2c0.22 0 0.4 0.54 0.4 1.2 0 1.133 0.089 1.2 1.6 1.2h1.6v-6.613-6.614l-1.387-1.386c-0.762-0.763-1.623-1.387-1.911-1.387-0.289 0-0.785-0.36-1.102-0.8s-0.857-0.8-1.2-0.8-0.883-0.36-1.2-0.8-0.857-0.8-1.2-0.8-0.883-0.36-1.2-0.8-0.857-0.8-1.2-0.8-0.883-0.36-1.2-0.8-0.857-0.8-1.2-0.8-0.883-0.36-1.2-0.8c-0.479-0.665-1.035-0.8-3.288-0.8-1.541 0-2.712-0.173-2.712-0.4 0-0.233-1.333-0.4-3.2-0.4s-3.2-0.167-3.2-0.4c0-0.222-1.067-0.4-2.4-0.4s-2.4-0.178-2.4-0.4c0-0.233-1.333-0.4-3.2-0.4s-3.2-0.167-3.2-0.4-1.333-0.4-3.2-0.4-3.2-0.167-3.2-0.4c0-0.229-1.2-0.4-2.8-0.4s-2.8-0.171-2.8-0.4-1.2-0.4-2.8-0.4-2.8-0.171-2.8-0.4-1.2-0.4-2.8-0.4-2.8-0.171-2.8-0.4c0-0.233-1.333-0.4-3.2-0.4s-3.2-0.167-3.2-0.4c0-0.22-0.72-0.4-1.6-0.4s-1.6-0.18-1.6-0.4-0.54-0.4-1.2-0.4-1.2 0.18-1.2 0.4m-2.4 11.2c0 0.229-1.2 0.4-2.8 0.4s-2.8 0.171-2.8 0.4c0 0.24-1.6 0.4-4 0.4s-4 0.16-4 0.4c0 0.242-1.733 0.4-4.4 0.4s-4.4 0.158-4.4 0.4c0 0.233-1.333 0.4-3.2 0.4s-3.2 0.167-3.2 0.4c0 0.237-1.467 0.4-3.6 0.4s-3.6 0.163-3.6 0.4c0 0.242-1.733 0.4-4.4 0.4s-4.4 0.158-4.4 0.4c0 0.22-0.9 0.4-2 0.4s-2 0.18-2 0.4-0.282 0.4-0.626 0.4-1.503 0.9-2.574 2-2.146 2-2.387 2c-0.87 0-3.213 2.762-3.213 3.787 0 1.565 2.471 1.45 4-0.187 0.617-0.66 1.369-1.2 1.672-1.2s0.811-0.36 1.128-0.8 0.897-0.8 1.288-0.8c0.392 0 0.712-0.18 0.712-0.4s0.36-0.4 0.8-0.4 0.8-0.18 0.8-0.4 0.36-0.4 0.8-0.4 0.8-0.18 0.8-0.4c0-0.242 1.733-0.4 4.4-0.4s4.4-0.158 4.4-0.4c0-0.244 1.867-0.4 4.8-0.4s4.8-0.156 4.8-0.4c0-0.237 1.467-0.4 3.6-0.4s3.6-0.163 3.6-0.4c0-0.242 1.733-0.4 4.4-0.4s4.4-0.158 4.4-0.4c0-0.24 1.6-0.4 4-0.4s4-0.16 4-0.4c0-0.237 1.467-0.4 3.6-0.4s3.6-0.163 3.6-0.4c0-0.22 0.54-0.4 1.2-0.4s1.2 0.18 1.2 0.4c0 0.237 1.467 0.4 3.6 0.4s3.6 0.163 3.6 0.4c0 0.24 1.6 0.4 4 0.4s4 0.16 4 0.4c0 0.237 1.467 0.4 3.6 0.4s3.6 0.163 3.6 0.4c0 0.24 1.6 0.4 4 0.4s4 0.16 4 0.4c0 0.246 2 0.4 5.2 0.4s5.2 0.154 5.2 0.4c0 0.233 1.333 0.4 3.2 0.4s3.2 0.167 3.2 0.4c0 0.22 0.5 0.4 1.112 0.4 0.653 0 1.349 0.33 1.688 0.8 0.317 0.44 0.825 0.8 1.128 0.8s1.055 0.54 1.672 1.2 1.409 1.2 1.76 1.2c0.352 0 0.64 0.18 0.64 0.4s0.54 0.4 1.2 0.4c1.019 0 1.2-0.154 1.2-1.018 0-1.024-1.581-2.982-2.408-2.982-0.244 0-1.321-0.9-2.392-2s-2.23-2-2.574-2-0.626-0.18-0.626-0.4c0-0.233-1.333-0.4-3.2-0.4s-3.2-0.167-3.2-0.4c0-0.242-1.733-0.4-4.4-0.4s-4.4-0.158-4.4-0.4c0-0.24-1.6-0.4-4-0.4s-4-0.16-4-0.4c0-0.242-1.733-0.4-4.4-0.4s-4.4-0.158-4.4-0.4c0-0.233-1.333-0.4-3.2-0.4s-3.2-0.167-3.2-0.4-1.333-0.4-3.2-0.4-3.2-0.167-3.2-0.4c0-0.229-1.2-0.4-2.8-0.4s-2.8-0.171-2.8-0.4-1.2-0.4-2.8-0.4-2.8 0.171-2.8 0.4m-1.6 16.8c0 0.237-1.467 0.4-3.6 0.4s-3.6 0.163-3.6 0.4c0 0.242-1.733 0.4-4.4 0.4s-4.4 0.158-4.4 0.4c0 0.237-1.467 0.4-3.6 0.4s-3.6 0.163-3.6 0.4-1.467 0.4-3.6 0.4-3.6 0.163-3.6 0.4c0 0.24-1.6 0.4-4 0.4s-4 0.16-4 0.4c0 0.237-1.467 0.4-3.6 0.4s-3.6 0.163-3.6 0.4c0 0.229-1.2 0.4-2.8 0.4s-2.8 0.171-2.8 0.4c0 0.22-0.32 0.4-0.712 0.4-0.391 0-0.971 0.36-1.288 0.8s-0.819 0.8-1.114 0.8c-0.296 0-1.415 0.9-2.486 2s-2.154 2-2.405 2c-0.252 0-1.149 0.72-1.995 1.6s-1.736 1.6-1.979 1.6c-0.67 0-4.021 3.492-4.021 4.189 0 0.336-0.18 0.611-0.4 0.611s-0.4 0.36-0.4 0.8 0.18 0.8 0.4 0.8c0.233 0 0.4 1.333 0.4 3.2s-0.167 3.2-0.4 3.2c-0.22 0-0.4 0.9-0.4 2s0.18 2 0.4 2 0.4 0.72 0.4 1.6-0.18 1.6-0.4 1.6-0.4 0.54-0.4 1.2c0 1.544 3.355 1.849 4.4 0.4 0.317-0.44 0.857-0.8 1.2-0.8s0.883-0.36 1.2-0.8 0.857-0.8 1.2-0.8 0.883-0.36 1.2-0.8 0.825-0.8 1.128-0.8 1.055-0.54 1.672-1.2 1.369-1.2 1.672-1.2 0.811-0.36 1.128-0.8 0.857-0.8 1.2-0.8 0.883-0.36 1.2-0.8 0.857-0.8 1.2-0.8 0.883-0.36 1.2-0.8 0.857-0.8 1.2-0.8 0.883-0.36 1.2-0.8 0.897-0.8 1.288-0.8c0.392 0 0.712-0.18 0.712-0.4 0-0.254 3.067-0.4 8.4-0.4s8.4-0.146 8.4-0.4c0-0.249 2.267-0.4 6-0.4s6-0.151 6-0.4c0-0.256 3.467-0.4 9.6-0.4s9.6-0.144 9.6-0.4c0-0.249 2.267-0.4 6-0.4s6 0.151 6 0.4c0 0.253 2.8 0.4 7.6 0.4s7.6 0.147 7.6 0.4c0 0.252 2.667 0.4 7.2 0.4s7.2 0.148 7.2 0.4c0 0.246 2 0.4 5.2 0.4s5.2 0.154 5.2 0.4c0 0.22 0.32 0.4 0.712 0.4 0.391 0 0.971 0.36 1.288 0.8s0.857 0.8 1.2 0.8 0.883 0.36 1.2 0.8 0.857 0.8 1.2 0.8 0.883 0.36 1.2 0.8 0.857 0.8 1.2 0.8 0.883 0.36 1.2 0.8 0.857 0.8 1.2 0.8 0.883 0.36 1.2 0.8 0.857 0.8 1.2 0.8 0.883 0.36 1.2 0.8 0.857 0.8 1.2 0.8 0.883 0.36 1.2 0.8 0.857 0.8 1.2 0.8 0.883 0.36 1.2 0.8c0.402 0.557 1.035 0.8 2.088 0.8h1.512v-9.018-9.018l-0.982-0.982c-0.54-0.54-1.184-0.982-1.431-0.982s-1.141-0.72-1.987-1.6-1.743-1.6-1.995-1.6c-0.251 0-1.334-0.9-2.405-2s-2.154-2-2.405-2c-0.252 0-1.149-0.72-1.995-1.6-1.355-1.41-1.755-1.6-3.369-1.6-1.007 0-1.831-0.18-1.831-0.4 0-0.237-1.467-0.4-3.6-0.4s-3.6-0.163-3.6-0.4c0-0.233-1.333-0.4-3.2-0.4s-3.2-0.167-3.2-0.4c0-0.242-1.733-0.4-4.4-0.4s-4.4-0.158-4.4-0.4c0-0.237-1.467-0.4-3.6-0.4s-3.6-0.163-3.6-0.4-1.467-0.4-3.6-0.4-3.6-0.163-3.6-0.4-1.467-0.4-3.6-0.4-3.6-0.163-3.6-0.4c0-0.242-1.733-0.4-4.4-0.4s-4.4-0.158-4.4-0.4c0-0.237-1.467-0.4-3.6-0.4s-3.6 0.163-3.6 0.4m8.8 4.8c0 0.237 1.467 0.4 3.6 0.4s3.6 0.163 3.6 0.4 1.467 0.4 3.6 0.4 3.6 0.163 3.6 0.4c0 0.24 1.6 0.4 4 0.4s4 0.16 4 0.4 1.6 0.4 4 0.4 4 0.16 4 0.4 1.6 0.4 4 0.4 4 0.16 4 0.4c0 0.237 1.467 0.4 3.6 0.4s3.6 0.163 3.6 0.4c0 0.233 1.333 0.4 3.2 0.4s3.2 0.167 3.2 0.4c0 0.22 0.278 0.4 0.617 0.4 0.34 0 2.042 1.44 3.783 3.2s3.356 3.2 3.589 3.2 1.771 1.347 3.417 2.994l2.994 2.993v3.807c0 4.245-0.027 4.29-1.6 2.606-0.617-0.66-1.369-1.2-1.672-1.2s-0.811-0.36-1.128-0.8-0.825-0.8-1.128-0.8-1.055-0.54-1.672-1.2-1.337-1.2-1.6-1.2-0.983-0.54-1.6-1.2-1.337-1.2-1.6-1.2-0.983-0.54-1.6-1.2-1.409-1.2-1.76-1.2c-0.352 0-0.64-0.18-0.64-0.4s-0.9-0.4-2-0.4-2-0.18-2-0.4c0-0.242-1.733-0.4-4.4-0.4s-4.4-0.158-4.4-0.4c0-0.244-1.867-0.4-4.8-0.4s-4.8-0.156-4.8-0.4-1.867-0.4-4.8-0.4-4.8-0.156-4.8-0.4c0-0.242-1.733-0.4-4.4-0.4s-4.4-0.158-4.4-0.4c0-0.244-1.867-0.4-4.8-0.4s-4.8-0.156-4.8-0.4c0-0.246-2-0.4-5.2-0.4s-5.2 0.154-5.2 0.4c0 0.242-1.733 0.4-4.4 0.4s-4.4 0.158-4.4 0.4-1.733 0.4-4.4 0.4-4.4 0.158-4.4 0.4-1.733 0.4-4.4 0.4-4.4 0.158-4.4 0.4c0 0.244-1.867 0.4-4.8 0.4s-4.8 0.156-4.8 0.4c0 0.242-1.733 0.4-4.4 0.4s-4.4 0.158-4.4 0.4c0 0.22-0.36 0.4-0.8 0.4s-0.8 0.18-0.8 0.4-0.32 0.4-0.712 0.4c-0.391 0-0.971 0.36-1.288 0.8s-0.825 0.8-1.128 0.8-1.055 0.54-1.672 1.2-1.337 1.2-1.6 1.2-0.983 0.54-1.6 1.2-1.337 1.2-1.6 1.2-0.983 0.54-1.6 1.2-1.337 1.2-1.6 1.2-0.983 0.54-1.6 1.2c-1.567 1.677-1.6 1.627-1.6-2.4 0-2.133 0.163-3.6 0.4-3.6 0.22 0 0.4-0.283 0.4-0.629 0-0.726 0.936-1.771 1.587-1.771 0.244 0 2.05-1.62 4.013-3.6s3.77-3.6 4.016-3.6 1.138-0.72 1.984-1.6c1.014-1.055 1.888-1.6 2.569-1.6 0.567 0 1.031-0.18 1.031-0.4 0-0.24 1.6-0.4 4-0.4s4-0.16 4-0.4c0-0.237 1.467-0.4 3.6-0.4s3.6-0.163 3.6-0.4 1.467-0.4 3.6-0.4 3.6-0.163 3.6-0.4c0-0.242 1.733-0.4 4.4-0.4s4.4-0.158 4.4-0.4c0-0.24 1.6-0.4 4-0.4s4-0.16 4-0.4 1.6-0.4 4-0.4 4-0.16 4-0.4c0-0.233 1.333-0.4 3.2-0.4s3.2-0.167 3.2-0.4c0-0.22 0.72-0.4 1.6-0.4s1.6 0.18 1.6 0.4m-6.4 29.6c0 0.244-1.867 0.4-4.8 0.4s-4.8 0.156-4.8 0.4c0 0.246-2 0.4-5.2 0.4s-5.2 0.154-5.2 0.4-2 0.4-5.2 0.4-5.2 0.154-5.2 0.4c0 0.242-1.733 0.4-4.4 0.4s-4.4 0.158-4.4 0.4c0 0.246-2 0.4-5.2 0.4s-5.2 0.154-5.2 0.4c0 0.22-0.54 0.4-1.2 0.4s-1.2 0.18-1.2 0.4-0.36 0.4-0.8 0.4-0.8 0.18-0.8 0.4-0.32 0.4-0.712 0.4c-0.391 0-0.971 0.36-1.288 0.8s-0.897 0.8-1.288 0.8c-0.392 0-0.712 0.18-0.712 0.4s-0.36 0.4-0.8 0.4-0.8 0.18-0.8 0.4-0.36 0.4-0.8 0.4-0.8 0.18-0.8 0.4-0.36 0.4-0.8 0.4-0.8 0.18-0.8 0.4-0.36 0.4-0.8 0.4-0.8 0.18-0.8 0.4-0.36 0.4-0.8 0.4-0.8 0.18-0.8 0.4-0.32 0.4-0.712 0.4c-0.391 0-0.971 0.36-1.288 0.8s-0.82 0.8-1.117 0.8c-1.518 0-1.683 0.903-1.683 9.2 0 8.924 0.075 9.2 2.483 9.2 0.882 0 1.538-0.274 1.917-0.8 0.317-0.44 0.897-0.8 1.288-0.8 0.392 0 0.712-0.18 0.712-0.4s0.32-0.4 0.712-0.4c0.391 0 0.971-0.36 1.288-0.8s0.897-0.8 1.288-0.8c0.392 0 0.712-0.18 0.712-0.4s0.32-0.4 0.712-0.4c0.391 0 0.971-0.36 1.288-0.8s0.897-0.8 1.288-0.8c0.392 0 0.712-0.18 0.712-0.4s0.32-0.4 0.712-0.4c0.391 0 0.971-0.36 1.288-0.8s0.897-0.8 1.288-0.8c0.392 0 0.712-0.18 0.712-0.4s0.36-0.4 0.8-0.4 0.8-0.18 0.8-0.4 0.36-0.4 0.8-0.4 0.8-0.18 0.8-0.4 0.32-0.4 0.712-0.4c0.391 0 0.971-0.36 1.288-0.8s0.897-0.8 1.288-0.8c0.392 0 0.712-0.18 0.712-0.4s0.54-0.4 1.2-0.4 1.2-0.18 1.2-0.4c0-0.233 1.333-0.4 3.2-0.4s3.2-0.167 3.2-0.4c0-0.249 2.267-0.4 6-0.4s6-0.151 6-0.4c0-0.246 2-0.4 5.2-0.4s5.2-0.154 5.2-0.4c0-0.251 2.533-0.4 6.8-0.4s6.8-0.149 6.8-0.4c0-0.249 2.267-0.4 6-0.4s6 0.151 6 0.4c0 0.251 2.533 0.4 6.8 0.4s6.8 0.149 6.8 0.4c0 0.249 2.267 0.4 6 0.4s6 0.151 6 0.4c0 0.246 2 0.4 5.2 0.4s5.2 0.154 5.2 0.4c0 0.22 0.86 0.4 1.912 0.4 1.453 0 2.05 0.192 2.488 0.8 0.317 0.44 0.897 0.8 1.288 0.8 0.392 0 0.712 0.18 0.712 0.4s0.32 0.4 0.712 0.4c0.391 0 0.971 0.36 1.288 0.8s0.897 0.8 1.288 0.8c0.392 0 0.712 0.18 0.712 0.4s0.36 0.4 0.8 0.4 0.8 0.18 0.8 0.4 0.32 0.4 0.712 0.4c0.391 0 0.971 0.36 1.288 0.8s0.897 0.8 1.288 0.8c0.392 0 0.712 0.18 0.712 0.4s0.32 0.4 0.712 0.4c0.391 0 0.971 0.36 1.288 0.8s0.897 0.8 1.288 0.8c0.392 0 0.712 0.18 0.712 0.4s0.36 0.4 0.8 0.4 0.8 0.18 0.8 0.4 0.32 0.4 0.712 0.4c0.391 0 0.971 0.36 1.288 0.8s0.897 0.8 1.288 0.8c0.392 0 0.712 0.18 0.712 0.4s0.72 0.4 1.6 0.4h1.6v-8.218c0-8.786-0.354-10.182-2.582-10.182-0.34 0-0.618-0.18-0.618-0.4s-0.36-0.4-0.8-0.4-0.8-0.18-0.8-0.4-0.36-0.4-0.8-0.4-0.8-0.18-0.8-0.4-0.36-0.4-0.8-0.4-0.8-0.18-0.8-0.4-0.36-0.4-0.8-0.4-0.8-0.18-0.8-0.4-0.32-0.4-0.712-0.4c-0.391 0-0.971-0.36-1.288-0.8s-0.897-0.8-1.288-0.8c-0.392 0-0.712-0.18-0.712-0.4s-0.36-0.4-0.8-0.4-0.8-0.18-0.8-0.4-0.36-0.4-0.8-0.4-0.8-0.18-0.8-0.4-0.36-0.4-0.8-0.4-0.8-0.18-0.8-0.4-0.9-0.4-2-0.4-2-0.18-2-0.4c0-0.248-2.133-0.4-5.6-0.4s-5.6-0.152-5.6-0.4c0-0.244-1.867-0.4-4.8-0.4s-4.8-0.156-4.8-0.4c0-0.246-2-0.4-5.2-0.4s-5.2-0.154-5.2-0.4c0-0.248-2.133-0.4-5.6-0.4s-5.6-0.152-5.6-0.4c0-0.237-1.467-0.4-3.6-0.4s-3.6-0.163-3.6-0.4c0-0.222-1.067-0.4-2.4-0.4s-2.4 0.178-2.4 0.4m13.6 4.8c0 0.249 2.267 0.4 6 0.4s6 0.151 6 0.4c0 0.244 1.867 0.4 4.8 0.4s4.8 0.156 4.8 0.4 1.867 0.4 4.8 0.4 4.8 0.156 4.8 0.4c0 0.237 1.467 0.4 3.6 0.4s3.6 0.163 3.6 0.4c0 0.22 0.36 0.4 0.8 0.4s0.8 0.18 0.8 0.4 0.36 0.4 0.8 0.4 0.8 0.18 0.8 0.4 0.36 0.4 0.8 0.4 0.8 0.18 0.8 0.4 0.54 0.4 1.2 0.4 1.2 0.18 1.2 0.4 0.36 0.4 0.8 0.4 0.8 0.18 0.8 0.4 0.36 0.4 0.8 0.4 0.8 0.18 0.8 0.4 0.36 0.4 0.8 0.4 0.8 0.18 0.8 0.4 0.36 0.4 0.8 0.4 0.8 0.18 0.8 0.4 0.54 0.4 1.2 0.4 1.2 0.18 1.2 0.4 0.36 0.4 0.8 0.4 0.8 0.18 0.8 0.4 0.278 0.4 0.618 0.4c1.787 0 2.582 1.78 2.582 5.782 0 4.079-0.592 4.972-2 3.018-0.317-0.44-0.897-0.8-1.288-0.8-0.392 0-0.712-0.18-0.712-0.4s-0.36-0.4-0.8-0.4-0.8-0.18-0.8-0.4-0.32-0.4-0.712-0.4c-0.391 0-0.971-0.36-1.288-0.8s-0.897-0.8-1.288-0.8c-0.392 0-0.712-0.18-0.712-0.4s-0.36-0.4-0.8-0.4-0.8-0.18-0.8-0.4-0.32-0.4-0.712-0.4c-0.391 0-0.971-0.36-1.288-0.8s-0.897-0.8-1.288-0.8c-0.392 0-0.712-0.18-0.712-0.4s-0.32-0.4-0.712-0.4c-0.391 0-0.971-0.36-1.288-0.8s-0.897-0.8-1.288-0.8c-0.392 0-0.712-0.18-0.712-0.4s-0.72-0.4-1.6-0.4-1.6-0.18-1.6-0.4c0-0.242-1.733-0.4-4.4-0.4s-4.4-0.158-4.4-0.4c0-0.24-1.6-0.4-4-0.4s-4-0.16-4-0.4-1.6-0.4-4-0.4-4-0.16-4-0.4c0-0.242-1.733-0.4-4.4-0.4s-4.4-0.158-4.4-0.4c0-0.237-1.467-0.4-3.6-0.4s-3.6-0.163-3.6-0.4c0-0.229-1.2-0.4-2.8-0.4s-2.8-0.171-2.8-0.4c0-0.22-0.54-0.4-1.2-0.4s-1.2 0.18-1.2 0.4c0 0.237-1.467 0.4-3.6 0.4s-3.6 0.163-3.6 0.4c0 0.24-1.6 0.4-4 0.4s-4 0.16-4 0.4-1.6 0.4-4 0.4-4 0.16-4 0.4-1.6 0.4-4 0.4-4 0.16-4 0.4c0 0.237-1.467 0.4-3.6 0.4s-3.6 0.163-3.6 0.4c0 0.24-1.6 0.4-4 0.4s-4 0.16-4 0.4c0 0.22-0.36 0.4-0.8 0.4s-0.8 0.18-0.8 0.4-0.36 0.4-0.8 0.4-0.8 0.18-0.8 0.4-0.32 0.4-0.712 0.4c-0.391 0-0.971 0.36-1.288 0.8s-0.897 0.8-1.288 0.8c-0.392 0-0.712 0.18-0.712 0.4s-0.36 0.4-0.8 0.4-0.8 0.18-0.8 0.4-0.32 0.4-0.712 0.4c-0.391 0-0.971 0.36-1.288 0.8s-0.897 0.8-1.288 0.8c-0.392 0-0.712 0.18-0.712 0.4s-0.32 0.4-0.712 0.4c-0.391 0-0.971 0.36-1.288 0.8s-0.897 0.8-1.288 0.8c-0.392 0-0.712 0.18-0.712 0.4s-0.32 0.4-0.712 0.4c-0.391 0-0.971 0.36-1.288 0.8-1.022 1.417-1.2 0.882-1.2-3.6 0-4.133 0.048-4.4 0.8-4.4 0.44 0 0.8-0.18 0.8-0.4s0.36-0.4 0.8-0.4 0.8-0.18 0.8-0.4 0.54-0.4 1.2-0.4 1.2-0.18 1.2-0.4 0.36-0.4 0.8-0.4 0.8-0.18 0.8-0.4 0.36-0.4 0.8-0.4 0.8-0.18 0.8-0.4 0.36-0.4 0.8-0.4 0.8-0.18 0.8-0.4 0.36-0.4 0.8-0.4 0.8-0.18 0.8-0.4 0.36-0.4 0.8-0.4 0.8-0.18 0.8-0.4 0.36-0.4 0.8-0.4 0.8-0.18 0.8-0.4 0.54-0.4 1.2-0.4 1.2-0.18 1.2-0.4 0.36-0.4 0.8-0.4 0.8-0.18 0.8-0.4 0.36-0.4 0.8-0.4 0.8-0.18 0.8-0.4c0-0.246 2-0.4 5.2-0.4s5.2-0.154 5.2-0.4c0-0.242 1.733-0.4 4.4-0.4s4.4-0.158 4.4-0.4c0-0.244 1.867-0.4 4.8-0.4s4.8-0.156 4.8-0.4c0-0.248 2.133-0.4 5.6-0.4s5.6-0.152 5.6-0.4c0-0.255 3.2-0.4 8.8-0.4s8.8 0.145 8.8 0.4m-154.17 18.571c0.314 0.315 0.571 1.215 0.571 2 0 0.786 0.18 1.429 0.4 1.429s0.4 0.72 0.4 1.6 0.18 1.6 0.4 1.6 0.4 0.9 0.4 2 0.18 2 0.4 2 0.4 0.54 0.4 1.2 0.18 1.2 0.4 1.2 0.4 0.36 0.4 0.8 0.18 0.8 0.4 0.8 0.4 0.54 0.4 1.2 0.18 1.2 0.4 1.2 0.4 0.36 0.4 0.8 0.18 0.8 0.4 0.8 0.4 0.54 0.4 1.2 0.18 1.2 0.4 1.2 0.4 0.36 0.4 0.8 0.18 0.8 0.4 0.8 0.4 0.72 0.4 1.6 0.18 1.6 0.4 1.6 0.4 0.36 0.4 0.8 0.18 0.8 0.4 0.8 0.4 0.36 0.4 0.8 0.18 0.8 0.4 0.8 0.4 0.36 0.4 0.8 0.18 0.8 0.4 0.8 0.4 0.32 0.4 0.712c0 0.391 0.36 0.971 0.8 1.288s0.8 0.897 0.8 1.288c0 0.392 0.18 0.712 0.4 0.712s0.4 0.5 0.4 1.112c0 0.653 0.33 1.349 0.8 1.688 0.44 0.317 0.8 0.897 0.8 1.288 0 0.392 0.18 0.712 0.4 0.712s0.4 0.32 0.4 0.712c0 0.391 0.36 0.971 0.8 1.288s0.8 0.897 0.8 1.288c0 0.392 0.18 0.712 0.4 0.712s0.4 0.32 0.4 0.712c0 0.391 0.36 0.971 0.8 1.288s0.8 0.857 0.8 1.2 0.36 0.883 0.8 1.2 0.8 0.825 0.8 1.128 0.54 1.055 1.2 1.672 1.2 1.369 1.2 1.672 0.36 0.811 0.8 1.128 0.8 0.821 0.8 1.12c0 0.298 0.72 1.234 1.6 2.08s1.6 1.74 1.6 1.988 1.26 1.693 2.8 3.212 2.8 2.952 2.8 3.185c0 0.556 8.262 8.815 8.818 8.815 0.234 0 1.486 1.08 2.782 2.4s2.563 2.4 2.817 2.4 0.966 0.54 1.583 1.2 1.333 1.2 1.592 1.2 1.162 0.72 2.008 1.6 1.821 1.6 2.169 1.6c0.347 0 0.631 0.18 0.631 0.4s0.288 0.4 0.64 0.4c0.351 0 1.143 0.54 1.76 1.2s1.369 1.2 1.672 1.2 0.811 0.36 1.128 0.8 0.897 0.8 1.288 0.8c0.392 0 0.712 0.18 0.712 0.4s0.32 0.4 0.712 0.4c0.391 0 0.971 0.36 1.288 0.8s0.897 0.8 1.288 0.8c0.392 0 0.712 0.18 0.712 0.4s0.32 0.4 0.712 0.4c0.391 0 0.971 0.36 1.288 0.8s0.897 0.8 1.288 0.8c0.392 0 0.712 0.18 0.712 0.4s0.54 0.4 1.2 0.4 1.2 0.18 1.2 0.4 0.36 0.4 0.8 0.4 0.8 0.18 0.8 0.4 0.36 0.4 0.8 0.4 0.8 0.18 0.8 0.4 0.36 0.4 0.8 0.4 0.8 0.18 0.8 0.4 0.36 0.4 0.8 0.4 0.8 0.18 0.8 0.4 0.36 0.4 0.8 0.4 0.8 0.18 0.8 0.4 0.36 0.4 0.8 0.4 0.8 0.18 0.8 0.4 0.54 0.4 1.2 0.4 1.2 0.18 1.2 0.4 0.54 0.4 1.2 0.4 1.2 0.18 1.2 0.4 0.36 0.4 0.8 0.4 0.8 0.18 0.8 0.4 0.54 0.4 1.2 0.4 1.2 0.18 1.2 0.4 0.54 0.4 1.2 0.4 1.2 0.18 1.2 0.4 0.54 0.4 1.2 0.4 1.2 0.18 1.2 0.4 0.72 0.4 1.6 0.4 1.6 0.18 1.6 0.4 0.72 0.4 1.6 0.4 1.6 0.18 1.6 0.4 0.72 0.4 1.6 0.4 1.6 0.18 1.6 0.4 0.9 0.4 2 0.4 2 0.18 2 0.4 0.9 0.4 2 0.4 2 0.18 2 0.4c0 0.222 1.067 0.4 2.4 0.4s2.4 0.178 2.4 0.4c0 0.261 6.4 0.4 18.4 0.4s18.4-0.139 18.4-0.4c0-0.222 1.067-0.4 2.4-0.4s2.4-0.178 2.4-0.4c0-0.22 0.9-0.4 2-0.4s2-0.18 2-0.4 0.9-0.4 2-0.4 2-0.18 2-0.4 0.72-0.4 1.6-0.4 1.6-0.18 1.6-0.4 0.72-0.4 1.6-0.4 1.6-0.18 1.6-0.4 0.72-0.4 1.6-0.4 1.6-0.18 1.6-0.4 0.54-0.4 1.2-0.4 1.2-0.18 1.2-0.4 0.54-0.4 1.2-0.4 1.2-0.18 1.2-0.4 0.54-0.4 1.2-0.4 1.2-0.18 1.2-0.4 0.36-0.4 0.8-0.4 0.8-0.18 0.8-0.4 0.54-0.4 1.2-0.4 1.2-0.18 1.2-0.4 0.54-0.4 1.2-0.4 1.2-0.18 1.2-0.4 0.36-0.4 0.8-0.4 0.8-0.18 0.8-0.4 0.36-0.4 0.8-0.4 0.8-0.18 0.8-0.4 0.36-0.4 0.8-0.4 0.8-0.18 0.8-0.4 0.36-0.4 0.8-0.4 0.8-0.18 0.8-0.4 0.36-0.4 0.8-0.4 0.8-0.18 0.8-0.4 0.36-0.4 0.8-0.4 0.8-0.18 0.8-0.4 0.54-0.4 1.2-0.4 1.2-0.18 1.2-0.4 0.32-0.4 0.712-0.4c0.391 0 0.971-0.36 1.288-0.8s0.897-0.8 1.288-0.8c0.392 0 0.712-0.18 0.712-0.4s0.32-0.4 0.712-0.4c0.391 0 0.971-0.36 1.288-0.8s0.897-0.8 1.288-0.8c0.392 0 0.712-0.18 0.712-0.4s0.32-0.4 0.712-0.4c0.391 0 0.971-0.36 1.288-0.8s0.825-0.8 1.128-0.8 1.055-0.54 1.672-1.2 1.409-1.2 1.76-1.2c0.352 0 0.64-0.18 0.64-0.4s0.284-0.4 0.631-0.4c0.348 0 1.323-0.72 2.169-1.6s1.749-1.6 2.008-1.6 0.975-0.54 1.592-1.2 1.329-1.2 1.583-1.2 1.521-1.08 2.817-2.4 2.548-2.4 2.782-2.4c0.556 0 8.818-8.259 8.818-8.815 0-0.233 1.26-1.666 2.8-3.185s2.8-2.964 2.8-3.212 0.72-1.142 1.6-1.988 1.6-1.782 1.6-2.08c0-0.299 0.36-0.803 0.8-1.12s0.8-0.825 0.8-1.128 0.54-1.055 1.2-1.672 1.2-1.369 1.2-1.672 0.36-0.811 0.8-1.128 0.8-0.857 0.8-1.2 0.36-0.883 0.8-1.2 0.8-0.897 0.8-1.288c0-0.392 0.18-0.712 0.4-0.712s0.4-0.32 0.4-0.712c0-0.391 0.36-0.971 0.8-1.288s0.8-0.897 0.8-1.288c0-0.392 0.18-0.712 0.4-0.712s0.4-0.32 0.4-0.712c0-0.391 0.36-0.971 0.8-1.288 0.47-0.339 0.8-1.035 0.8-1.688 0-0.612 0.18-1.112 0.4-1.112s0.4-0.32 0.4-0.712c0-0.391 0.36-0.971 0.8-1.288s0.8-0.897 0.8-1.288c0-0.392 0.18-0.712 0.4-0.712s0.4-0.36 0.4-0.8 0.18-0.8 0.4-0.8 0.4-0.36 0.4-0.8 0.18-0.8 0.4-0.8 0.4-0.36 0.4-0.8 0.18-0.8 0.4-0.8 0.4-0.72 0.4-1.6 0.18-1.6 0.4-1.6 0.4-0.36 0.4-0.8 0.18-0.8 0.4-0.8 0.4-0.54 0.4-1.2 0.18-1.2 0.4-1.2 0.4-0.36 0.4-0.8 0.18-0.8 0.4-0.8 0.4-0.54 0.4-1.2 0.18-1.2 0.4-1.2 0.4-0.36 0.4-0.8 0.18-0.8 0.4-0.8 0.4-0.54 0.4-1.2 0.18-1.2 0.4-1.2 0.4-0.9 0.4-2 0.18-2 0.4-2 0.4-0.72 0.4-1.6 0.18-1.6 0.4-1.6 0.4-0.643 0.4-1.429c0-2.328 0.546-2.571 5.771-2.571 4.362 0 4.629 0.046 4.629 0.8 0 0.44-0.18 0.8-0.4 0.8s-0.4 0.72-0.4 1.6-0.18 1.6-0.4 1.6-0.4 0.72-0.4 1.6-0.18 1.6-0.4 1.6-0.4 0.72-0.4 1.6-0.18 1.6-0.4 1.6-0.4 0.54-0.4 1.2-0.18 1.2-0.4 1.2-0.4 0.54-0.4 1.2-0.18 1.2-0.4 1.2-0.4 0.54-0.4 1.2-0.18 1.2-0.4 1.2-0.4 0.54-0.4 1.2-0.18 1.2-0.4 1.2-0.4 0.36-0.4 0.8-0.18 0.8-0.4 0.8-0.4 0.54-0.4 1.2-0.18 1.2-0.4 1.2-0.4 0.36-0.4 0.8-0.18 0.8-0.4 0.8-0.4 0.36-0.4 0.8-0.18 0.8-0.4 0.8-0.4 0.54-0.4 1.2-0.18 1.2-0.4 1.2-0.4 0.36-0.4 0.8-0.18 0.8-0.4 0.8-0.4 0.36-0.4 0.8-0.18 0.8-0.4 0.8-0.4 0.36-0.4 0.8-0.18 0.8-0.4 0.8-0.4 0.36-0.4 0.8-0.18 0.8-0.4 0.8-0.4 0.36-0.4 0.8-0.18 0.8-0.4 0.8-0.4 0.36-0.4 0.8-0.18 0.8-0.4 0.8-0.4 0.32-0.4 0.712c0 0.391-0.36 0.971-0.8 1.288s-0.8 0.897-0.8 1.288c0 0.392-0.18 0.712-0.4 0.712s-0.4 0.32-0.4 0.712c0 0.391-0.36 0.971-0.8 1.288s-0.8 0.897-0.8 1.288c0 0.392-0.18 0.712-0.4 0.712s-0.4 0.32-0.4 0.712c0 0.391-0.36 0.971-0.8 1.288s-0.8 0.857-0.8 1.2-0.36 0.883-0.8 1.2-0.8 0.825-0.8 1.128-0.54 1.055-1.2 1.672-1.2 1.369-1.2 1.672-0.36 0.811-0.8 1.128-0.8 0.821-0.8 1.12c0 0.298-0.72 1.234-1.6 2.08s-1.6 1.741-1.6 1.991c0 0.249-1.08 1.513-2.4 2.809s-2.4 2.547-2.4 2.781c0 0.556-11.463 12.019-12.019 12.019-0.234 0-1.485 1.08-2.781 2.4s-2.56 2.4-2.809 2.4c-0.25 0-1.145 0.72-1.991 1.6s-1.782 1.6-2.08 1.6c-0.299 0-0.803 0.36-1.12 0.8s-0.825 0.8-1.128 0.8-1.055 0.54-1.672 1.2-1.369 1.2-1.672 1.2-0.811 0.36-1.128 0.8-0.857 0.8-1.2 0.8-0.883 0.36-1.2 0.8-0.897 0.8-1.288 0.8c-0.392 0-0.712 0.18-0.712 0.4s-0.32 0.4-0.712 0.4c-0.391 0-0.971 0.36-1.288 0.8s-0.897 0.8-1.288 0.8c-0.392 0-0.712 0.18-0.712 0.4s-0.32 0.4-0.712 0.4c-0.391 0-0.971 0.36-1.288 0.8s-0.897 0.8-1.288 0.8c-0.392 0-0.712 0.18-0.712 0.4s-0.36 0.4-0.8 0.4-0.8 0.18-0.8 0.4-0.36 0.4-0.8 0.4-0.8 0.18-0.8 0.4-0.36 0.4-0.8 0.4-0.8 0.18-0.8 0.4-0.36 0.4-0.8 0.4-0.8 0.18-0.8 0.4-0.36 0.4-0.8 0.4-0.8 0.18-0.8 0.4-0.36 0.4-0.8 0.4-0.8 0.18-0.8 0.4-0.54 0.4-1.2 0.4-1.2 0.18-1.2 0.4-0.36 0.4-0.8 0.4-0.8 0.18-0.8 0.4-0.36 0.4-0.8 0.4-0.8 0.18-0.8 0.4-0.54 0.4-1.2 0.4-1.2 0.18-1.2 0.4-0.36 0.4-0.8 0.4-0.8 0.18-0.8 0.4-0.54 0.4-1.2 0.4-1.2 0.18-1.2 0.4-0.54 0.4-1.2 0.4-1.2 0.18-1.2 0.4-0.54 0.4-1.2 0.4-1.2 0.18-1.2 0.4-0.54 0.4-1.2 0.4-1.2 0.18-1.2 0.4-0.72 0.4-1.6 0.4-1.6 0.18-1.6 0.4-0.72 0.4-1.6 0.4-1.6 0.18-1.6 0.4-0.72 0.4-1.6 0.4-1.6 0.18-1.6 0.4-0.72 0.4-1.6 0.4-1.6 0.18-1.6 0.4-0.9 0.4-2 0.4-2 0.18-2 0.4c0 0.222-1.067 0.4-2.4 0.4s-2.4 0.178-2.4 0.4c0 0.233-1.333 0.4-3.2 0.4s-3.2 0.167-3.2 0.4c0 0.26-5.333 0.4-15.2 0.4s-15.2-0.14-15.2-0.4c0-0.233-1.333-0.4-3.2-0.4s-3.2-0.167-3.2-0.4c0-0.222-1.067-0.4-2.4-0.4s-2.4-0.178-2.4-0.4c0-0.22-0.9-0.4-2-0.4s-2-0.18-2-0.4-0.72-0.4-1.6-0.4-1.6-0.18-1.6-0.4-0.72-0.4-1.6-0.4-1.6-0.18-1.6-0.4-0.72-0.4-1.6-0.4-1.6-0.18-1.6-0.4-0.72-0.4-1.6-0.4-1.6-0.18-1.6-0.4-0.54-0.4-1.2-0.4-1.2-0.18-1.2-0.4-0.54-0.4-1.2-0.4-1.2-0.18-1.2-0.4-0.54-0.4-1.2-0.4-1.2-0.18-1.2-0.4-0.54-0.4-1.2-0.4-1.2-0.18-1.2-0.4-0.36-0.4-0.8-0.4-0.8-0.18-0.8-0.4-0.54-0.4-1.2-0.4-1.2-0.18-1.2-0.4-0.36-0.4-0.8-0.4-0.8-0.18-0.8-0.4-0.36-0.4-0.8-0.4-0.8-0.18-0.8-0.4-0.54-0.4-1.2-0.4-1.2-0.18-1.2-0.4-0.36-0.4-0.8-0.4-0.8-0.18-0.8-0.4-0.36-0.4-0.8-0.4-0.8-0.18-0.8-0.4-0.36-0.4-0.8-0.4-0.8-0.18-0.8-0.4-0.36-0.4-0.8-0.4-0.8-0.18-0.8-0.4-0.36-0.4-0.8-0.4-0.8-0.18-0.8-0.4-0.36-0.4-0.8-0.4-0.8-0.18-0.8-0.4-0.32-0.4-0.712-0.4c-0.391 0-0.971-0.36-1.288-0.8s-0.897-0.8-1.288-0.8c-0.392 0-0.712-0.18-0.712-0.4s-0.32-0.4-0.712-0.4c-0.391 0-0.971-0.36-1.288-0.8s-0.897-0.8-1.288-0.8c-0.392 0-0.712-0.18-0.712-0.4s-0.32-0.4-0.712-0.4c-0.391 0-0.971-0.36-1.288-0.8s-0.857-0.8-1.2-0.8-0.883-0.36-1.2-0.8-0.825-0.8-1.128-0.8-1.055-0.54-1.672-1.2-1.369-1.2-1.672-1.2-0.811-0.36-1.128-0.8-0.821-0.8-1.12-0.8c-0.298 0-1.234-0.72-2.08-1.6s-1.741-1.6-1.991-1.6c-0.249 0-1.513-1.08-2.809-2.4s-2.547-2.4-2.781-2.4c-0.556 0-12.019-11.463-12.019-12.019 0-0.234-1.08-1.485-2.4-2.781s-2.4-2.56-2.4-2.809c0-0.25-0.72-1.145-1.6-1.991s-1.6-1.782-1.6-2.08c0-0.299-0.36-0.803-0.8-1.12s-0.8-0.825-0.8-1.128-0.54-1.055-1.2-1.672-1.2-1.369-1.2-1.672-0.36-0.811-0.8-1.128-0.8-0.857-0.8-1.2-0.36-0.883-0.8-1.2-0.8-0.897-0.8-1.288c0-0.392-0.18-0.712-0.4-0.712s-0.4-0.32-0.4-0.712c0-0.391-0.36-0.971-0.8-1.288s-0.8-0.897-0.8-1.288c0-0.392-0.18-0.712-0.4-0.712s-0.4-0.32-0.4-0.712c0-0.391-0.36-0.971-0.8-1.288s-0.8-0.897-0.8-1.288c0-0.392-0.18-0.712-0.4-0.712s-0.4-0.36-0.4-0.8-0.18-0.8-0.4-0.8-0.4-0.36-0.4-0.8-0.18-0.8-0.4-0.8-0.4-0.36-0.4-0.8-0.18-0.8-0.4-0.8-0.4-0.36-0.4-0.8-0.18-0.8-0.4-0.8-0.4-0.36-0.4-0.8-0.18-0.8-0.4-0.8-0.4-0.36-0.4-0.8-0.18-0.8-0.4-0.8-0.4-0.54-0.4-1.2-0.18-1.2-0.4-1.2-0.4-0.36-0.4-0.8-0.18-0.8-0.4-0.8-0.4-0.36-0.4-0.8-0.18-0.8-0.4-0.8-0.4-0.54-0.4-1.2-0.18-1.2-0.4-1.2-0.4-0.36-0.4-0.8-0.18-0.8-0.4-0.8-0.4-0.54-0.4-1.2-0.18-1.2-0.4-1.2-0.4-0.54-0.4-1.2-0.18-1.2-0.4-1.2-0.4-0.54-0.4-1.2-0.18-1.2-0.4-1.2-0.4-0.54-0.4-1.2-0.18-1.2-0.4-1.2-0.4-0.72-0.4-1.6-0.18-1.6-0.4-1.6-0.4-0.72-0.4-1.6-0.18-1.6-0.4-1.6-0.4-0.72-0.4-1.6-0.18-1.6-0.4-1.6-0.4-0.36-0.4-0.8c0-1.039 8.813-1.244 9.829-0.229" fill="#047cc4"/>
</g>
</svg>
